SplineFontDB: 1.0
FontName: DejaVuSansMono-Bold
FullName: DejaVu Sans Mono Bold
FamilyName: DejaVu Sans Mono
Weight: Bold
Copyright: Copyright (c) 2003 by Bitstream, Inc. All Rights Reserved.\nDejaVu changes are in public domain\n
Version: 1.4
ItalicAngle: 0
UnderlinePosition: -221
UnderlineWidth: 246
Ascent: 1556
Descent: 492
Order2: 1
NeedsXUIDChange: 1
FSType: 4
PfmFamily: 17
TTFWeight: 700
TTFWidth: 5
Panose: 2 11 7 9 3 6 4 2 2 4
LineGap: 410
VLineGap: 0
OS2TypoAscent: 1556
OS2TypoDescent: -492
OS2TypoLinegap: 0
OS2WinAscent: 1901
OS2WinAOffset: 1
OS2WinDescent: 483
OS2WinDOffset: 1
HheadAscent: 0
HheadAOffset: 1
HheadDescent: 0
HheadDOffset: 1
ScriptLang: 2
 1 DFLT 1 dflt 
 1 latn 1 dflt 
TtfTable: prep 1272
\,q1GFM@_V]=S0V]*#V?"1S+/[^AU/[^uXL7g$+R"1+9qZ8)NeA-9'%"0\j@"g;\DXqLo='*G<7
"0/=0"fhD$W=8s.Vi1eXrWB+7"K/,""fI:]VgnoIV'ZAC=TbNd"JmFIV#CIk1'=6c"/2AX"eknt
Tt(-M5lUt[T0WXR7g#AL".l&="eKK3SMC;;rWAYd".K&gRJm;U&d+IH"-sc+PPtZIrWA;^"-EKa
O(Ak+O*q+jN>)PV('BPT&-\%-",mcnMe4"6M_YBl$j2?B]*4&j",M_<"c0bmLk#V`L*["Y>m#jI
"GS3)KnKs?Kc'uG%g.HM"+pLSJRoArJMI=XIhN!9A-7;p"+HO<I:NG-;ZhAY*X-mG"+"Mi"aVp+
Go-X.Af_,#A-7&T"*XYGFE7lpEt&4lE@qE8rW@-m")qin"`SklD\rRoD7]shrW@"R>m5)W")WPk
ChY1!Cg@-Z5Qkk<");Nr"_tXOBgD\E"))9f"__EKB4`1gB4M*VAIo#W*Wosb"(_B5A,ZR>rW?SW
"(;*1?=X.C>8.6GrW?@="'RG^=Y16i=V_*A('@V<&d;A9"'./Z<W3)";[Wb.&-Gi="&_u3"]CWg
;,@f-;&071&-G`-"&;R$"\t?c9k4?"rW>gm"%l,u"\P'_8J;1sq?'7a"%I\@777dm7=>8+'*CT=
"$mD!5;E=)&Hb0Y%L##p"$AXQ"[!7s3su-O3>Vi[Q30-,$O&O,"$(l73"#gJ5Qj#((^2iW"#__D
"Z@2"2)H-R2+n$.1DC!L(]uQ."#;SJ"YsTj0eF"A0c1!H0,Qqi"Y`=H0,OdD/J84>*WmuF&Hsa!
""h"a5X5VY/1V57/.ht8\,lXq#m;b.%L"?n""Uk^^d&2/.L$4`.LlP1\,h+F<s0sF""4Z^-VFOg
,T$\3,Qf><(^23Y"!djZ"XFoe,8:5(*#&Q#1'8[B1^,$d"!@RV"X#W(*ubmt*uY5&)\`GsrW=/\
'EoL4!ur!W)]B@n)\`An\,q1G#m;.a&Hs'd!ueZN5X5VY)$g`V)%crg\,lXq<s0?S!uFT4('"sN
(7#%;2ZjaQ!tt\V"V^_7&i'P$&2FD$q?%9/&d8h%!tPlD"V6"`%KI+F%TifB#S.(J*WlfY%g<@_
!t,VA$31\B#R:bA#S."C\,jB1#m:J;$3^YC!sc=:J3XDD"pG;:"ptG:\,ek%"9f)6"h4R55T'\-

StartChar: .notdef
Encoding: 0 -1 0
Width: 1233
Flags: W
Fore
104 -362 m 1,0,-1
 104 1444 l 1,1,-1
 1128 1444 l 1,2,-1
 1128 -362 l 1,3,-1
 104 -362 l 1,0,-1
219 -248 m 1,4,-1
 1014 -248 l 1,5,-1
 1014 1329 l 1,6,-1
 219 1329 l 1,7,-1
 219 -248 l 1,4,-1
EndSplineSet
EndChar
StartChar: exclam
Encoding: 33 33 4
Width: 1233
Flags: W
Fore
483 283 m 1,0,-1
 750 283 l 1,1,-1
 750 0 l 1,2,-1
 483 0 l 1,3,-1
 483 283 l 1,0,-1
483 1493 m 1,4,-1
 750 1493 l 1,5,-1
 750 838 l 1,6,-1
 717 481 l 1,7,-1
 518 481 l 1,8,-1
 483 838 l 1,9,-1
 483 1493 l 1,4,-1
EndSplineSet
EndChar
StartChar: quotedbl
Encoding: 34 34 5
Width: 1233
Flags: W
Fore
999 1493 m 1,0,-1
 999 938 l 1,1,-1
 743 938 l 1,2,-1
 743 1493 l 1,3,-1
 999 1493 l 1,0,-1
487 1493 m 1,4,-1
 487 938 l 1,5,-1
 231 938 l 1,6,-1
 231 1493 l 1,7,-1
 487 1493 l 1,4,-1
EndSplineSet
EndChar
StartChar: numbersign
Encoding: 35 35 6
Width: 1233
Flags: W
Fore
707 1470 m 1,0,-1
 612 1096 l 1,1,-1
 815 1096 l 1,2,-1
 909 1470 l 1,3,-1
 1133 1470 l 1,4,-1
 1036 1096 l 1,5,-1
 1229 1096 l 1,6,-1
 1229 881 l 1,7,-1
 983 881 l 1,8,-1
 909 588 l 1,9,-1
 1114 588 l 1,10,-1
 1114 373 l 1,11,-1
 856 373 l 1,12,-1
 762 0 l 1,13,-1
 541 0 l 1,14,-1
 635 373 l 1,15,-1
 430 373 l 1,16,-1
 336 0 l 1,17,-1
 115 0 l 1,18,-1
 209 373 l 1,19,-1
 2 373 l 1,20,-1
 2 588 l 1,21,-1
 262 588 l 1,22,-1
 336 881 l 1,23,-1
 117 881 l 1,24,-1
 117 1096 l 1,25,-1
 391 1096 l 1,26,-1
 485 1470 l 1,27,-1
 707 1470 l 1,0,-1
762 881 m 1,28,-1
 557 881 l 1,29,-1
 483 588 l 1,30,-1
 688 588 l 1,31,-1
 762 881 l 1,28,-1
EndSplineSet
EndChar
StartChar: dollar
Encoding: 36 36 7
Width: 1233
Flags: W
Fore
694 528 m 1,0,-1
 694 226 l 1,1,2
 757 235 757 235 792 274.5 c 128,-1,3
 827 314 827 314 827 375 c 0,4,5
 827 437 827 437 792.5 476.5 c 128,-1,6
 758 516 758 516 694 528 c 1,0,-1
553 817 m 1,7,-1
 553 1100 l 1,8,9
 491 1092 491 1092 459.5 1058.5 c 128,-1,10
 428 1025 428 1025 428 967 c 0,11,12
 428 910 428 910 459.5 872 c 128,-1,13
 491 834 491 834 553 817 c 1,7,-1
694 -301 m 1,14,-1
 553 -301 l 1,15,-1
 552 0 l 1,16,17
 465 3 465 3 370 26 c 128,-1,18
 275 49 275 49 172 92 c 1,19,-1
 172 354 l 1,20,21
 275 293 275 293 371.5 260 c 128,-1,22
 468 227 468 227 553 226 c 1,23,-1
 553 555 l 1,24,25
 356 594 356 594 260 689.5 c 128,-1,26
 164 785 164 785 164 942 c 0,27,28
 164 1109 164 1109 266 1208 c 128,-1,29
 368 1307 368 1307 553 1319 c 1,30,-1
 553 1556 l 1,31,-1
 694 1556 l 1,32,-1
 695 1319 l 1,33,34
 766 1315 766 1315 842.5 1301 c 128,-1,35
 919 1287 919 1287 999 1262 c 1,36,-1
 999 1006 l 1,37,38
 937 1046 937 1046 861 1070 c 128,-1,39
 785 1094 785 1094 694 1100 c 1,40,-1
 694 793 l 1,41,42
 891 762 891 762 991.5 658.5 c 128,-1,43
 1092 555 1092 555 1092 383 c 0,44,45
 1092 219 1092 219 983.5 114 c 128,-1,46
 875 9 875 9 695 0 c 1,47,-1
 694 -301 l 1,14,-1
EndSplineSet
EndChar
StartChar: percent
Encoding: 37 37 8
Width: 1233
Flags: W
Fore
33 1112 m 0,0,1
 33 1246 33 1246 126 1339 c 128,-1,2
 219 1432 219 1432 352 1432 c 0,3,4
 485 1432 485 1432 578.5 1338.5 c 128,-1,5
 672 1245 672 1245 672 1112 c 0,6,7
 672 979 672 979 578.5 886 c 128,-1,8
 485 793 485 793 352 793 c 0,9,10
 219 793 219 793 126 885.5 c 128,-1,11
 33 978 33 978 33 1112 c 0,0,1
352 1249 m 0,12,13
 295 1249 295 1249 255 1209.5 c 128,-1,14
 215 1170 215 1170 215 1112 c 0,15,16
 215 1054 215 1054 255 1014.5 c 128,-1,17
 295 975 295 975 352 975 c 0,18,19
 410 975 410 975 449.5 1014.5 c 128,-1,20
 489 1054 489 1054 489 1112 c 0,21,22
 489 1169 489 1169 449 1209 c 128,-1,23
 409 1249 409 1249 352 1249 c 0,12,13
86 561 m 1,24,-1
 1128 979 l 1,25,-1
 1169 883 l 1,26,-1
 121 465 l 1,27,-1
 86 561 l 1,24,-1
580 319 m 0,28,29
 580 453 580 453 672.5 546 c 128,-1,30
 765 639 765 639 899 639 c 0,31,32
 1031 639 1031 639 1125 545.5 c 128,-1,33
 1219 452 1219 452 1219 319 c 0,34,35
 1219 187 1219 187 1125 93.5 c 128,-1,36
 1031 0 1031 0 899 0 c 0,37,38
 765 0 765 0 672.5 92.5 c 128,-1,39
 580 185 580 185 580 319 c 0,28,29
897 457 m 0,40,41
 841 457 841 457 801.5 417 c 128,-1,42
 762 377 762 377 762 319 c 0,43,44
 762 261 762 261 801 221.5 c 128,-1,45
 840 182 840 182 897 182 c 0,46,47
 955 182 955 182 995.5 222 c 128,-1,48
 1036 262 1036 262 1036 319 c 0,49,50
 1036 376 1036 376 995 416.5 c 128,-1,51
 954 457 954 457 897 457 c 0,40,41
EndSplineSet
EndChar
StartChar: ampersand
Encoding: 38 38 9
Width: 1233
Flags: W
Fore
870 72 m 1,0,1
 795 22 795 22 710.5 -3.5 c 128,-1,2
 626 -29 626 -29 539 -29 c 0,3,4
 315 -29 315 -29 176 102 c 128,-1,5
 37 233 37 233 37 442 c 0,6,7
 37 587 37 587 107.5 706 c 128,-1,8
 178 825 178 825 317 913 c 1,9,10
 267 991 267 991 243 1057.5 c 128,-1,11
 219 1124 219 1124 219 1184 c 0,12,13
 219 1346 219 1346 328 1433 c 128,-1,14
 437 1520 437 1520 643 1520 c 0,15,16
 716 1520 716 1520 786 1509 c 128,-1,17
 856 1498 856 1498 924 1477 c 1,18,-1
 924 1221 l 1,19,20
 860 1257 860 1257 794.5 1275.5 c 128,-1,21
 729 1294 729 1294 664 1294 c 0,22,23
 584 1294 584 1294 543 1266 c 128,-1,24
 502 1238 502 1238 502 1184 c 0,25,26
 502 1148 502 1148 532.5 1085 c 128,-1,27
 563 1022 563 1022 631 920 c 1,28,-1
 944 440 l 1,29,30
 965 478 965 478 976 527 c 128,-1,31
 987 576 987 576 987 633 c 0,32,33
 987 663 987 663 985 691.5 c 128,-1,34
 983 720 983 720 979 745 c 1,35,-1
 1214 745 l 1,36,-1
 1214 694 l 2,37,38
 1214 549 1214 549 1180 440.5 c 128,-1,39
 1146 332 1146 332 1073 246 c 1,40,-1
 1235 0 l 1,41,-1
 918 0 l 1,42,-1
 870 72 l 1,0,1
440 731 m 1,43,44
 374 688 374 688 340.5 628.5 c 128,-1,45
 307 569 307 569 307 496 c 0,46,47
 307 374 307 374 385.5 290.5 c 128,-1,48
 464 207 464 207 578 207 c 0,49,50
 606 207 606 207 635.5 213.5 c 128,-1,51
 665 220 665 220 693 232 c 0,52,53
 695 233 695 233 701 236 c 0,54,55
 730 250 730 250 748 262 c 1,56,-1
 440 731 l 1,43,44
EndSplineSet
EndChar
StartChar: quotesingle
Encoding: 39 39 10
Width: 1233
Flags: W
Fore
743 1493 m 1,0,-1
 743 938 l 1,1,-1
 487 938 l 1,2,-1
 487 1493 l 1,3,-1
 743 1493 l 1,0,-1
EndSplineSet
EndChar
StartChar: parenleft
Encoding: 40 40 11
Width: 1233
Flags: W
Fore
924 1554 m 1,0,1
 792 1315 792 1315 728 1091 c 128,-1,2
 664 867 664 867 664 643 c 0,3,4
 664 421 664 421 728 195.5 c 128,-1,5
 792 -30 792 -30 924 -270 c 1,6,-1
 696 -270 l 1,7,8
 537 -39 537 -39 460 185.5 c 128,-1,9
 383 410 383 410 383 643 c 0,10,11
 383 875 383 875 460.5 1100.5 c 128,-1,12
 538 1326 538 1326 696 1554 c 1,13,-1
 924 1554 l 1,0,1
EndSplineSet
EndChar
StartChar: parenright
Encoding: 41 41 12
Width: 1233
Flags: W
Fore
309 1554 m 1,0,-1
 537 1554 l 1,1,2
 695 1326 695 1326 772.5 1100.5 c 128,-1,3
 850 875 850 875 850 643 c 0,4,5
 850 410 850 410 773 185.5 c 128,-1,6
 696 -39 696 -39 537 -270 c 1,7,-1
 309 -270 l 1,8,9
 441 -30 441 -30 505 195.5 c 128,-1,10
 569 421 569 421 569 643 c 0,11,12
 569 867 569 867 505 1091 c 128,-1,13
 441 1315 441 1315 309 1554 c 1,0,-1
EndSplineSet
EndChar
StartChar: asterisk
Encoding: 42 42 13
Width: 1233
Flags: W
Fore
1108 1217 m 1,0,-1
 778 1044 l 1,1,-1
 1108 870 l 1,2,-1
 1032 729 l 1,3,-1
 700 913 l 1,4,-1
 700 569 l 1,5,-1
 528 569 l 1,6,-1
 528 913 l 1,7,-1
 197 729 l 1,8,-1
 121 870 l 1,9,-1
 453 1044 l 1,10,-1
 121 1217 l 1,11,-1
 197 1358 l 1,12,-1
 528 1176 l 1,13,-1
 528 1520 l 1,14,-1
 700 1520 l 1,15,-1
 700 1176 l 1,16,-1
 1032 1358 l 1,17,-1
 1108 1217 l 1,0,-1
EndSplineSet
EndChar
StartChar: plus
Encoding: 43 43 14
Width: 1233
Flags: W
Fore
735 1192 m 1,0,-1
 735 762 l 1,1,-1
 1165 762 l 1,2,-1
 1165 524 l 1,3,-1
 735 524 l 1,4,-1
 735 92 l 1,5,-1
 498 92 l 1,6,-1
 498 524 l 1,7,-1
 66 524 l 1,8,-1
 66 762 l 1,9,-1
 498 762 l 1,10,-1
 498 1192 l 1,11,-1
 735 1192 l 1,0,-1
EndSplineSet
EndChar
StartChar: comma
Encoding: 44 44 15
Width: 1233
Flags: W
Fore
461 367 m 1,0,-1
 774 367 l 1,1,-1
 774 96 l 1,2,-1
 578 -287 l 1,3,-1
 362 -287 l 1,4,-1
 461 96 l 1,5,-1
 461 367 l 1,0,-1
EndSplineSet
EndChar
StartChar: hyphen
Encoding: 45 45 16
Width: 1233
Flags: W
Fore
301 735 m 1,0,-1
 932 735 l 1,1,-1
 932 444 l 1,2,-1
 301 444 l 1,3,-1
 301 735 l 1,0,-1
EndSplineSet
EndChar
StartChar: period
Encoding: 46 46 17
Width: 1233
Flags: W
Fore
449 367 m 1,0,-1
 782 367 l 1,1,-1
 782 0 l 1,2,-1
 449 0 l 1,3,-1
 449 367 l 1,0,-1
EndSplineSet
EndChar
StartChar: slash
Encoding: 47 47 18
Width: 1233
Flags: W
Fore
899 1493 m 1,0,-1
 1120 1493 l 1,1,-1
 334 -190 l 1,2,-1
 113 -190 l 1,3,-1
 899 1493 l 1,0,-1
EndSplineSet
EndChar
StartChar: zero
Encoding: 48 48 19
Width: 1233
Flags: W
Fore
492 745 m 0,0,1
 492 798 492 798 528 834 c 128,-1,2
 564 870 564 870 616 870 c 0,3,4
 669 870 669 870 705 834 c 128,-1,5
 741 798 741 798 741 745 c 0,6,7
 741 693 741 693 705 657 c 128,-1,8
 669 621 669 621 616 621 c 0,9,10
 564 621 564 621 528 656.5 c 128,-1,11
 492 692 492 692 492 745 c 0,0,1
616 1270 m 0,12,13
 514 1270 514 1270 467 1145 c 128,-1,14
 420 1020 420 1020 420 745 c 0,15,16
 420 471 420 471 467 346 c 128,-1,17
 514 221 514 221 616 221 c 0,18,19
 719 221 719 221 766 346 c 128,-1,20
 813 471 813 471 813 745 c 0,21,22
 813 1020 813 1020 766 1145 c 128,-1,23
 719 1270 719 1270 616 1270 c 0,12,13
123 745 m 0,24,25
 123 1133 123 1133 246 1326.5 c 128,-1,26
 369 1520 369 1520 616 1520 c 0,27,28
 864 1520 864 1520 987 1327 c 128,-1,29
 1110 1134 1110 1134 1110 745 c 0,30,31
 1110 357 1110 357 987 164 c 128,-1,32
 864 -29 864 -29 616 -29 c 0,33,34
 369 -29 369 -29 246 164.5 c 128,-1,35
 123 358 123 358 123 745 c 0,24,25
EndSplineSet
EndChar
StartChar: one
Encoding: 49 49 20
Width: 1233
Flags: W
Fore
188 260 m 1,0,-1
 518 260 l 1,1,-1
 518 1229 l 1,2,-1
 211 1153 l 1,3,-1
 211 1419 l 1,4,-1
 520 1493 l 1,5,-1
 805 1493 l 1,6,-1
 805 260 l 1,7,-1
 1135 260 l 1,8,-1
 1135 0 l 1,9,-1
 188 0 l 1,10,-1
 188 260 l 1,0,-1
EndSplineSet
EndChar
StartChar: two
Encoding: 50 50 21
Width: 1233
Flags: W
Fore
434 260 m 1,0,-1
 1063 260 l 1,1,-1
 1063 0 l 1,2,-1
 115 0 l 1,3,-1
 115 252 l 1,4,-1
 275 422 l 2,5,6
 560 725 560 725 621 795 c 0,7,8
 696 881 696 881 729 947.5 c 128,-1,9
 762 1014 762 1014 762 1079 c 0,10,11
 762 1179 762 1179 701.5 1233.5 c 128,-1,12
 641 1288 641 1288 530 1288 c 0,13,14
 451 1288 451 1288 352.5 1256.5 c 128,-1,15
 254 1225 254 1225 147 1165 c 1,16,-1
 147 1440 l 1,17,18
 254 1479 254 1479 356.5 1499.5 c 128,-1,19
 459 1520 459 1520 553 1520 c 0,20,21
 790 1520 790 1520 925.5 1409.5 c 128,-1,22
 1061 1299 1061 1299 1061 1108 c 0,23,24
 1061 1020 1061 1020 1031.5 943 c 128,-1,25
 1002 866 1002 866 930 772 c 0,26,27
 877 704 877 704 639 466 c 0,28,29
 510 337 510 337 434 260 c 1,0,-1
EndSplineSet
EndChar
StartChar: three
Encoding: 51 51 22
Width: 1233
Flags: W
Fore
549 668 m 2,0,-1
 391 668 l 1,1,-1
 391 928 l 1,2,-1
 549 928 l 2,3,4
 659 928 659 928 719.5 971.5 c 128,-1,5
 780 1015 780 1015 780 1094 c 0,6,7
 780 1177 780 1177 719.5 1223.5 c 128,-1,8
 659 1270 659 1270 549 1270 c 0,9,10
 465 1270 465 1270 369 1249 c 128,-1,11
 273 1228 273 1228 170 1188 c 1,12,-1
 170 1456 l 1,13,14
 273 1487 273 1487 373 1503.5 c 128,-1,15
 473 1520 473 1520 565 1520 c 0,16,17
 801 1520 801 1520 933 1417 c 128,-1,18
 1065 1314 1065 1314 1065 1133 c 0,19,20
 1065 1000 1065 1000 989 915.5 c 128,-1,21
 913 831 913 831 772 805 c 1,22,23
 932 777 932 777 1016 677.5 c 128,-1,24
 1100 578 1100 578 1100 416 c 0,25,26
 1100 199 1100 199 961 85 c 128,-1,27
 822 -29 822 -29 557 -29 c 0,28,29
 444 -29 444 -29 334.5 -10 c 128,-1,30
 225 9 225 9 125 45 c 1,31,-1
 125 319 l 1,32,33
 219 272 219 272 328 247.5 c 128,-1,34
 437 223 437 223 557 223 c 0,35,36
 677 223 677 223 747 278.5 c 128,-1,37
 817 334 817 334 817 428 c 0,38,39
 817 543 817 543 747 605.5 c 128,-1,40
 677 668 677 668 549 668 c 2,0,-1
EndSplineSet
EndChar
StartChar: four
Encoding: 52 52 23
Width: 1233
Flags: W
Fore
694 1165 m 1,0,-1
 317 575 l 1,1,-1
 694 575 l 1,2,-1
 694 1165 l 1,0,-1
668 1493 m 1,3,-1
 977 1493 l 1,4,-1
 977 575 l 1,5,-1
 1141 575 l 1,6,-1
 1141 322 l 1,7,-1
 977 322 l 1,8,-1
 977 0 l 1,9,-1
 694 0 l 1,10,-1
 694 322 l 1,11,-1
 102 322 l 1,12,-1
 102 608 l 1,13,-1
 668 1493 l 1,3,-1
EndSplineSet
EndChar
StartChar: five
Encoding: 53 53 24
Width: 1233
Flags: W
Fore
193 1493 m 1,0,-1
 1004 1493 l 1,1,-1
 1004 1233 l 1,2,-1
 432 1233 l 1,3,-1
 432 956 l 1,4,5
 468 970 468 970 509 976.5 c 128,-1,6
 550 983 550 983 596 983 c 0,7,8
 818 983 818 983 956 843 c 128,-1,9
 1094 703 1094 703 1094 479 c 0,10,11
 1094 244 1094 244 944.5 107.5 c 128,-1,12
 795 -29 795 -29 537 -29 c 0,13,14
 441 -29 441 -29 343 -13 c 128,-1,15
 245 3 245 3 143 35 c 1,16,-1
 143 301 l 1,17,18
 226 260 226 260 313.5 239.5 c 128,-1,19
 401 219 401 219 489 219 c 0,20,21
 645 219 645 219 726 285.5 c 128,-1,22
 807 352 807 352 807 479 c 0,23,24
 807 596 807 596 726.5 666.5 c 128,-1,25
 646 737 646 737 512 737 c 0,26,27
 433 737 433 737 353.5 717.5 c 128,-1,28
 274 698 274 698 193 659 c 1,29,-1
 193 1493 l 1,0,-1
EndSplineSet
EndChar
StartChar: six
Encoding: 54 54 25
Width: 1233
Flags: W
Fore
643 748 m 0,0,1
 547 748 547 748 496.5 678.5 c 128,-1,2
 446 609 446 609 446 477 c 0,3,4
 446 346 446 346 496.5 276.5 c 128,-1,5
 547 207 547 207 643 207 c 0,6,7
 739 207 739 207 790.5 276.5 c 128,-1,8
 842 346 842 346 842 477 c 0,9,10
 842 608 842 608 790.5 678 c 128,-1,11
 739 748 739 748 643 748 c 0,0,1
1030 1458 m 1,12,-1
 1030 1190 l 1,13,14
 951 1235 951 1235 878.5 1257.5 c 128,-1,15
 806 1280 806 1280 739 1280 c 0,16,17
 579 1280 579 1280 495.5 1172.5 c 128,-1,18
 412 1065 412 1065 408 855 c 1,19,20
 455 920 455 920 528 952.5 c 128,-1,21
 601 985 601 985 700 985 c 0,22,23
 902 985 902 985 1012 857.5 c 128,-1,24
 1122 730 1122 730 1122 496 c 0,25,26
 1122 245 1122 245 998.5 107 c 128,-1,27
 875 -31 875 -31 651 -31 c 0,28,29
 378 -31 378 -31 254.5 152 c 128,-1,30
 131 335 131 335 131 743 c 0,31,32
 131 1131 131 1131 282 1324.5 c 128,-1,33
 433 1518 433 1518 735 1518 c 0,34,35
 805 1518 805 1518 879.5 1503 c 128,-1,36
 954 1488 954 1488 1030 1458 c 1,12,-1
EndSplineSet
EndChar
StartChar: seven
Encoding: 55 55 26
Width: 1233
Flags: W
Fore
135 1493 m 1,0,-1
 1079 1493 l 1,1,-1
 1079 1284 l 1,2,-1
 573 0 l 1,3,-1
 272 0 l 1,4,-1
 758 1233 l 1,5,-1
 135 1233 l 1,6,-1
 135 1493 l 1,0,-1
EndSplineSet
EndChar
StartChar: eight
Encoding: 56 56 27
Width: 1233
Flags: W
Fore
616 666 m 0,0,1
 517 666 517 666 456 603.5 c 128,-1,2
 395 541 395 541 395 438 c 0,3,4
 395 335 395 335 456 272 c 128,-1,5
 517 209 517 209 616 209 c 0,6,7
 715 209 715 209 776.5 273 c 128,-1,8
 838 337 838 337 838 438 c 0,9,10
 838 541 838 541 777 603.5 c 128,-1,11
 716 666 716 666 616 666 c 0,0,1
397 791 m 1,12,13
 284 830 284 830 225 913.5 c 128,-1,14
 166 997 166 997 166 1118 c 0,15,16
 166 1304 166 1304 287 1412 c 128,-1,17
 408 1520 408 1520 616 1520 c 0,18,19
 825 1520 825 1520 946 1412 c 128,-1,20
 1067 1304 1067 1304 1067 1118 c 0,21,22
 1067 998 1067 998 1009 914.5 c 128,-1,23
 951 831 951 831 840 791 c 1,24,25
 964 753 964 753 1034 655 c 128,-1,26
 1104 557 1104 557 1104 420 c 0,27,28
 1104 205 1104 205 977 88 c 128,-1,29
 850 -29 850 -29 616 -29 c 0,30,31
 383 -29 383 -29 256 88 c 128,-1,32
 129 205 129 205 129 420 c 0,33,34
 129 558 129 558 200 656 c 128,-1,35
 271 754 271 754 397 791 c 1,12,13
428 1094 m 0,36,37
 428 1006 428 1006 478.5 954.5 c 128,-1,38
 529 903 529 903 616 903 c 0,39,40
 704 903 704 903 754.5 954.5 c 128,-1,41
 805 1006 805 1006 805 1094 c 0,42,43
 805 1181 805 1181 754.5 1231.5 c 128,-1,44
 704 1282 704 1282 616 1282 c 0,45,46
 530 1282 530 1282 479 1231 c 128,-1,47
 428 1180 428 1180 428 1094 c 0,36,37
EndSplineSet
EndChar
StartChar: nine
Encoding: 57 57 28
Width: 1233
Flags: W
Fore
203 20 m 1,0,-1
 203 289 l 1,1,2
 282 243 282 243 354.5 221 c 128,-1,3
 427 199 427 199 494 199 c 0,4,5
 653 199 653 199 736.5 305.5 c 128,-1,6
 820 412 820 412 825 624 c 1,7,8
 778 559 778 559 705 526.5 c 128,-1,9
 632 494 632 494 532 494 c 0,10,11
 331 494 331 494 221 621.5 c 128,-1,12
 111 749 111 749 111 983 c 0,13,14
 111 1233 111 1233 234 1370 c 128,-1,15
 357 1507 357 1507 582 1507 c 0,16,17
 855 1507 855 1507 978.5 1324.5 c 128,-1,18
 1102 1142 1102 1142 1102 735 c 0,19,20
 1102 348 1102 348 951 154.5 c 128,-1,21
 800 -39 800 -39 498 -39 c 0,22,23
 428 -39 428 -39 353.5 -24 c 128,-1,24
 279 -9 279 -9 203 20 c 1,0,-1
590 741 m 0,25,26
 685 741 685 741 735.5 810.5 c 128,-1,27
 786 880 786 880 786 1012 c 0,28,29
 786 1143 786 1143 735.5 1212.5 c 128,-1,30
 685 1282 685 1282 590 1282 c 0,31,32
 494 1282 494 1282 442.5 1212.5 c 128,-1,33
 391 1143 391 1143 391 1012 c 0,34,35
 391 881 391 881 442.5 811 c 128,-1,36
 494 741 494 741 590 741 c 0,25,26
EndSplineSet
EndChar
StartChar: colon
Encoding: 58 58 29
Width: 1233
Flags: W
Fore
449 1063 m 1,0,-1
 782 1063 l 1,1,-1
 782 698 l 1,2,-1
 449 698 l 1,3,-1
 449 1063 l 1,0,-1
449 367 m 1,4,-1
 782 367 l 1,5,-1
 782 0 l 1,6,-1
 449 0 l 1,7,-1
 449 367 l 1,4,-1
EndSplineSet
EndChar
StartChar: semicolon
Encoding: 59 59 30
Width: 1233
Flags: W
Fore
449 367 m 1,0,-1
 782 367 l 1,1,-1
 782 96 l 1,2,-1
 586 -287 l 1,3,-1
 371 -287 l 1,4,-1
 449 96 l 1,5,-1
 449 367 l 1,0,-1
449 1063 m 1,6,-1
 782 1063 l 1,7,-1
 782 698 l 1,8,-1
 449 698 l 1,9,-1
 449 1063 l 1,6,-1
EndSplineSet
EndChar
StartChar: less
Encoding: 60 60 31
Width: 1233
Flags: W
Fore
1145 926 m 1,0,-1
 350 641 l 1,1,-1
 1145 358 l 1,2,-1
 1145 109 l 1,3,-1
 88 524 l 1,4,-1
 88 760 l 1,5,-1
 1145 1176 l 1,6,-1
 1145 926 l 1,0,-1
EndSplineSet
EndChar
StartChar: equal
Encoding: 61 61 32
Width: 1233
Flags: W
Fore
88 532 m 1,0,-1
 1145 532 l 1,1,-1
 1145 295 l 1,2,-1
 88 295 l 1,3,-1
 88 532 l 1,0,-1
88 987 m 1,4,-1
 1145 987 l 1,5,-1
 1145 752 l 1,6,-1
 88 752 l 1,7,-1
 88 987 l 1,4,-1
EndSplineSet
EndChar
StartChar: greater
Encoding: 62 62 33
Width: 1233
Flags: W
Fore
88 926 m 1,0,-1
 88 1176 l 1,1,-1
 1145 760 l 1,2,-1
 1145 524 l 1,3,-1
 88 109 l 1,4,-1
 88 358 l 1,5,-1
 883 641 l 1,6,-1
 88 926 l 1,0,-1
EndSplineSet
EndChar
StartChar: question
Encoding: 63 63 34
Width: 1233
Flags: W
Fore
440 283 m 1,0,-1
 707 283 l 1,1,-1
 707 0 l 1,2,-1
 440 0 l 1,3,-1
 440 283 l 1,0,-1
707 401 m 1,4,-1
 440 401 l 1,5,-1
 440 555 l 2,6,7
 440 654 440 654 471 724 c 128,-1,8
 502 794 502 794 582 872 c 2,9,-1
 672 961 l 2,10,11
 735 1022 735 1022 757.5 1062 c 128,-1,12
 780 1102 780 1102 780 1145 c 0,13,14
 780 1212 780 1212 734 1246 c 128,-1,15
 688 1280 688 1280 596 1280 c 0,16,17
 512 1280 512 1280 420.5 1244.5 c 128,-1,18
 329 1209 329 1209 233 1139 c 1,19,-1
 233 1407 l 1,20,21
 331 1463 331 1463 431.5 1491.5 c 128,-1,22
 532 1520 532 1520 633 1520 c 0,23,24
 835 1520 835 1520 950 1426 c 128,-1,25
 1065 1332 1065 1332 1065 1167 c 0,26,27
 1065 1091 1065 1091 1031 1025.5 c 128,-1,28
 997 960 997 960 903 868 c 2,29,-1
 815 782 l 2,30,31
 747 716 747 716 728 674 c 128,-1,32
 709 632 709 632 709 571 c 0,33,34
 709 562 709 562 708.5 550 c 128,-1,35
 708 538 708 538 707 524 c 1,36,-1
 707 401 l 1,4,-1
EndSplineSet
EndChar
StartChar: at
Encoding: 64 64 35
Width: 1233
Flags: W
Fore
973 545 m 0,0,1
 973 658 973 658 922 722 c 128,-1,2
 871 786 871 786 782 786 c 0,3,4
 693 786 693 786 642.5 722 c 128,-1,5
 592 658 592 658 592 545 c 0,6,7
 592 431 592 431 642.5 367 c 128,-1,8
 693 303 693 303 782 303 c 0,9,10
 871 303 871 303 922 367 c 128,-1,11
 973 431 973 431 973 545 c 0,0,1
1159 135 m 1,12,-1
 963 135 l 1,13,-1
 963 217 l 1,14,15
 925 164 925 164 873.5 139.5 c 128,-1,16
 822 115 822 115 750 115 c 0,17,18
 586 115 586 115 485.5 233 c 128,-1,19
 385 351 385 351 385 545 c 0,20,21
 385 738 385 738 485 855.5 c 128,-1,22
 585 973 585 973 750 973 c 0,23,24
 821 973 821 973 875 948.5 c 128,-1,25
 929 924 929 924 963 877 c 1,26,-1
 963 918 l 2,27,28
 963 1054 963 1054 888.5 1128 c 128,-1,29
 814 1202 814 1202 676 1202 c 0,30,31
 468 1202 468 1202 336.5 1019 c 128,-1,32
 205 836 205 836 205 543 c 0,33,34
 205 236 205 236 357 54.5 c 128,-1,35
 509 -127 509 -127 762 -127 c 0,36,37
 842 -127 842 -127 917 -103.5 c 128,-1,38
 992 -80 992 -80 1061 -33 c 1,39,-1
 1153 -209 l 1,40,41
 1072 -264 1072 -264 976.5 -291.5 c 128,-1,42
 881 -319 881 -319 772 -319 c 0,43,44
 422 -319 422 -319 214 -86 c 128,-1,45
 6 147 6 147 6 543 c 0,46,47
 6 930 6 930 193 1162.5 c 128,-1,48
 380 1395 380 1395 688 1395 c 0,49,50
 906 1395 906 1395 1032.5 1263.5 c 128,-1,51
 1159 1132 1159 1132 1159 905 c 2,52,-1
 1159 135 l 1,12,-1
EndSplineSet
EndChar
StartChar: A
Encoding: 65 65 36
Width: 1233
Flags: W
Fore
616 1223 m 1,0,-1
 477 612 l 1,1,-1
 756 612 l 1,2,-1
 616 1223 l 1,0,-1
436 1493 m 1,3,-1
 797 1493 l 1,4,-1
 1200 0 l 1,5,-1
 905 0 l 1,6,-1
 813 369 l 1,7,-1
 418 369 l 1,8,-1
 328 0 l 1,9,-1
 33 0 l 1,10,-1
 436 1493 l 1,3,-1
EndSplineSet
EndChar
StartChar: B
Encoding: 66 66 37
Width: 1233
Flags: W
Fore
410 678 m 1,0,-1
 410 236 l 1,1,-1
 606 236 l 2,2,3
 747 236 747 236 803.5 284 c 128,-1,4
 860 332 860 332 860 451 c 0,5,6
 860 572 860 572 801 625 c 128,-1,7
 742 678 742 678 606 678 c 2,8,-1
 410 678 l 1,0,-1
410 1260 m 1,9,-1
 410 913 l 1,10,-1
 606 913 l 2,11,12
 718 913 718 913 765.5 953 c 128,-1,13
 813 993 813 993 813 1085 c 0,14,15
 813 1177 813 1177 764.5 1218.5 c 128,-1,16
 716 1260 716 1260 606 1260 c 2,17,-1
 410 1260 l 1,9,-1
125 1495 m 1,18,-1
 606 1495 l 2,19,20
 855 1495 855 1495 980.5 1400.5 c 128,-1,21
 1106 1306 1106 1306 1106 1118 c 0,22,23
 1106 974 1106 974 1032 893 c 128,-1,24
 958 812 958 812 815 799 c 1,25,26
 986 782 986 782 1072.5 684 c 128,-1,27
 1159 586 1159 586 1159 410 c 0,28,29
 1159 194 1159 194 1029 97 c 128,-1,30
 899 0 899 0 606 0 c 2,31,-1
 125 0 l 1,32,-1
 125 1495 l 1,18,-1
EndSplineSet
EndChar
StartChar: C
Encoding: 67 67 38
Width: 1233
Flags: W
Fore
1081 43 m 1,0,1
 1011 7 1011 7 934 -11 c 128,-1,2
 857 -29 857 -29 772 -29 c 0,3,4
 470 -29 470 -29 311 170 c 128,-1,5
 152 369 152 369 152 745 c 0,6,7
 152 1122 152 1122 311 1321 c 128,-1,8
 470 1520 470 1520 772 1520 c 0,9,10
 857 1520 857 1520 935 1502 c 128,-1,11
 1013 1484 1013 1484 1081 1448 c 1,12,-1
 1081 1120 l 1,13,14
 1005 1190 1005 1190 933.5 1222.5 c 128,-1,15
 862 1255 862 1255 786 1255 c 0,16,17
 624 1255 624 1255 541.5 1126.5 c 128,-1,18
 459 998 459 998 459 745 c 0,19,20
 459 493 459 493 541.5 364.5 c 128,-1,21
 624 236 624 236 786 236 c 0,22,23
 862 236 862 236 933.5 268.5 c 128,-1,24
 1005 301 1005 301 1081 371 c 1,25,-1
 1081 43 l 1,0,1
EndSplineSet
EndChar
StartChar: D
Encoding: 68 68 39
Width: 1233
Flags: W
Fore
432 1227 m 1,0,-1
 432 266 l 1,1,-1
 512 266 l 2,2,3
 686 266 686 266 760 375.5 c 128,-1,4
 834 485 834 485 834 748 c 0,5,6
 834 1009 834 1009 760 1118 c 128,-1,7
 686 1227 686 1227 512 1227 c 2,8,-1
 432 1227 l 1,0,-1
137 1493 m 1,9,-1
 453 1493 l 2,10,11
 819 1493 819 1493 980 1318.5 c 128,-1,12
 1141 1144 1141 1144 1141 748 c 0,13,14
 1141 351 1141 351 980 175.5 c 128,-1,15
 819 0 819 0 453 0 c 2,16,-1
 137 0 l 1,17,-1
 137 1493 l 1,9,-1
EndSplineSet
EndChar
StartChar: E
Encoding: 69 69 40
Width: 1233
Flags: W
Fore
1098 0 m 1,0,-1
 168 0 l 1,1,-1
 168 1493 l 1,2,-1
 1098 1493 l 1,3,-1
 1098 1233 l 1,4,-1
 463 1233 l 1,5,-1
 463 911 l 1,6,-1
 1038 911 l 1,7,-1
 1038 651 l 1,8,-1
 463 651 l 1,9,-1
 463 260 l 1,10,-1
 1098 260 l 1,11,-1
 1098 0 l 1,0,-1
EndSplineSet
EndChar
StartChar: F
Encoding: 70 70 41
Width: 1233
Flags: W
Fore
1112 1233 m 1,0,-1
 477 1233 l 1,1,-1
 477 911 l 1,2,-1
 1055 911 l 1,3,-1
 1055 651 l 1,4,-1
 477 651 l 1,5,-1
 477 0 l 1,6,-1
 182 0 l 1,7,-1
 182 1493 l 1,8,-1
 1112 1493 l 1,9,-1
 1112 1233 l 1,0,-1
EndSplineSet
EndChar
StartChar: G
Encoding: 71 71 42
Width: 1233
Flags: W
Fore
872 270 m 1,0,-1
 872 555 l 1,1,-1
 670 555 l 1,2,-1
 670 803 l 1,3,-1
 1130 803 l 1,4,-1
 1130 119 l 1,5,6
 1045 46 1045 46 942.5 8.5 c 128,-1,7
 840 -29 840 -29 723 -29 c 0,8,9
 433 -29 433 -29 275 172.5 c 128,-1,10
 117 374 117 374 117 745 c 0,11,12
 117 1122 117 1122 276.5 1321 c 128,-1,13
 436 1520 436 1520 737 1520 c 0,14,15
 827 1520 827 1520 914 1494.5 c 128,-1,16
 1001 1469 1001 1469 1077 1421 c 1,17,-1
 1077 1094 l 1,18,19
 1015 1174 1015 1174 934.5 1214.5 c 128,-1,20
 854 1255 854 1255 758 1255 c 0,21,22
 590 1255 590 1255 507 1128.5 c 128,-1,23
 424 1002 424 1002 424 745 c 0,24,25
 424 496 424 496 504 366 c 128,-1,26
 584 236 584 236 737 236 c 0,27,28
 783 236 783 236 817 244.5 c 128,-1,29
 851 253 851 253 872 270 c 1,0,-1
EndSplineSet
EndChar
StartChar: H
Encoding: 72 72 43
Width: 1233
Flags: W
Fore
137 1493 m 1,0,-1
 432 1493 l 1,1,-1
 432 924 l 1,2,-1
 801 924 l 1,3,-1
 801 1493 l 1,4,-1
 1096 1493 l 1,5,-1
 1096 0 l 1,6,-1
 801 0 l 1,7,-1
 801 664 l 1,8,-1
 432 664 l 1,9,-1
 432 0 l 1,10,-1
 137 0 l 1,11,-1
 137 1493 l 1,0,-1
EndSplineSet
EndChar
StartChar: I
Encoding: 73 73 44
Width: 1233
Flags: W
Fore
172 1233 m 1,0,-1
 172 1493 l 1,1,-1
 1061 1493 l 1,2,-1
 1061 1233 l 1,3,-1
 764 1233 l 1,4,-1
 764 260 l 1,5,-1
 1061 260 l 1,6,-1
 1061 0 l 1,7,-1
 172 0 l 1,8,-1
 172 260 l 1,9,-1
 469 260 l 1,10,-1
 469 1233 l 1,11,-1
 172 1233 l 1,0,-1
EndSplineSet
EndChar
StartChar: J
Encoding: 74 74 45
Width: 1233
Flags: W
Fore
109 74 m 1,0,-1
 109 416 l 1,1,2
 195 328 195 328 292.5 282 c 128,-1,3
 390 236 390 236 489 236 c 0,4,5
 605 236 605 236 659 294 c 128,-1,6
 713 352 713 352 713 479 c 2,7,-1
 713 1233 l 1,8,-1
 352 1233 l 1,9,-1
 352 1493 l 1,10,-1
 1008 1493 l 1,11,-1
 1008 479 l 2,12,13
 1008 206 1008 206 893.5 88.5 c 128,-1,14
 779 -29 779 -29 516 -29 c 0,15,16
 421 -29 421 -29 317.5 -3 c 128,-1,17
 214 23 214 23 109 74 c 1,0,-1
EndSplineSet
EndChar
StartChar: K
Encoding: 75 75 46
Width: 1233
Flags: W
Fore
117 1493 m 1,0,-1
 412 1493 l 1,1,-1
 412 903 l 1,2,-1
 874 1493 l 1,3,-1
 1208 1493 l 1,4,-1
 737 905 l 1,5,-1
 1225 0 l 1,6,-1
 897 0 l 1,7,-1
 543 672 l 1,8,-1
 412 506 l 1,9,-1
 412 0 l 1,10,-1
 117 0 l 1,11,-1
 117 1493 l 1,0,-1
EndSplineSet
EndChar
StartChar: L
Encoding: 76 76 47
Width: 1233
Flags: W
Fore
225 0 m 1,0,-1
 225 1493 l 1,1,-1
 520 1493 l 1,2,-1
 520 260 l 1,3,-1
 1151 260 l 1,4,-1
 1151 0 l 1,5,-1
 225 0 l 1,0,-1
EndSplineSet
EndChar
StartChar: M
Encoding: 77 77 48
Width: 1233
Flags: W
Fore
86 1493 m 1,0,-1
 438 1493 l 1,1,-1
 616 838 l 1,2,-1
 793 1493 l 1,3,-1
 1147 1493 l 1,4,-1
 1147 0 l 1,5,-1
 893 0 l 1,6,-1
 893 1196 l 1,7,-1
 735 543 l 1,8,-1
 500 543 l 1,9,-1
 340 1196 l 1,10,-1
 340 0 l 1,11,-1
 86 0 l 1,12,-1
 86 1493 l 1,0,-1
EndSplineSet
EndChar
StartChar: N
Encoding: 78 78 49
Width: 1233
Flags: W
Fore
119 1493 m 1,0,-1
 436 1493 l 1,1,-1
 852 408 l 1,2,-1
 852 1493 l 1,3,-1
 1112 1493 l 1,4,-1
 1112 0 l 1,5,-1
 797 0 l 1,6,-1
 379 1085 l 1,7,-1
 379 0 l 1,8,-1
 119 0 l 1,9,-1
 119 1493 l 1,0,-1
EndSplineSet
EndChar
StartChar: O
Encoding: 79 79 50
Width: 1233
Flags: W
Fore
616 1255 m 0,0,1
 503 1255 503 1255 451 1134.5 c 128,-1,2
 399 1014 399 1014 399 745 c 0,3,4
 399 477 399 477 451 356.5 c 128,-1,5
 503 236 503 236 616 236 c 0,6,7
 730 236 730 236 782 356.5 c 128,-1,8
 834 477 834 477 834 745 c 0,9,10
 834 1014 834 1014 782 1134.5 c 128,-1,11
 730 1255 730 1255 616 1255 c 0,0,1
92 745 m 0,12,13
 92 1128 92 1128 224.5 1324 c 128,-1,14
 357 1520 357 1520 616 1520 c 0,15,16
 876 1520 876 1520 1008.5 1324 c 128,-1,17
 1141 1128 1141 1128 1141 745 c 0,18,19
 1141 363 1141 363 1008.5 167 c 128,-1,20
 876 -29 876 -29 616 -29 c 0,21,22
 357 -29 357 -29 224.5 167 c 128,-1,23
 92 363 92 363 92 745 c 0,12,13
EndSplineSet
EndChar
StartChar: P
Encoding: 80 80 51
Width: 1233
Flags: W
Fore
457 1245 m 1,0,-1
 457 807 l 1,1,-1
 578 807 l 2,2,3
 723 807 723 807 781.5 856 c 128,-1,4
 840 905 840 905 840 1026 c 0,5,6
 840 1147 840 1147 781.5 1196 c 128,-1,7
 723 1245 723 1245 578 1245 c 2,8,-1
 457 1245 l 1,0,-1
162 1493 m 1,9,-1
 567 1493 l 2,10,11
 876 1493 876 1493 1011.5 1383 c 128,-1,12
 1147 1273 1147 1273 1147 1026 c 0,13,14
 1147 779 1147 779 1011.5 669 c 128,-1,15
 876 559 876 559 567 559 c 2,16,-1
 457 559 l 1,17,-1
 457 0 l 1,18,-1
 162 0 l 1,19,-1
 162 1493 l 1,9,-1
EndSplineSet
EndChar
StartChar: Q
Encoding: 81 81 52
Width: 1233
Flags: W
Fore
656 -23 m 1,0,1
 642 -26 642 -26 632.5 -27.5 c 128,-1,2
 623 -29 623 -29 614 -29 c 0,3,4
 357 -29 357 -29 224.5 167 c 128,-1,5
 92 363 92 363 92 745 c 0,6,7
 92 1128 92 1128 224.5 1324 c 128,-1,8
 357 1520 357 1520 616 1520 c 0,9,10
 876 1520 876 1520 1008.5 1324 c 128,-1,11
 1141 1128 1141 1128 1141 745 c 0,12,13
 1141 482 1141 482 1078 304.5 c 128,-1,14
 1015 127 1015 127 895 51 c 1,15,-1
 1081 -131 l 1,16,-1
 879 -281 l 1,17,-1
 656 -23 l 1,0,1
616 1255 m 0,18,19
 503 1255 503 1255 451 1134.5 c 128,-1,20
 399 1014 399 1014 399 745 c 0,21,22
 399 477 399 477 451 356.5 c 128,-1,23
 503 236 503 236 616 236 c 0,24,25
 730 236 730 236 782 356.5 c 128,-1,26
 834 477 834 477 834 745 c 0,27,28
 834 1014 834 1014 782 1134.5 c 128,-1,29
 730 1255 730 1255 616 1255 c 0,18,19
EndSplineSet
EndChar
StartChar: R
Encoding: 82 82 53
Width: 1233
Flags: W
Fore
807 705 m 1,0,1
 851 696 851 696 883.5 663.5 c 128,-1,2
 916 631 916 631 963 537 c 2,3,-1
 1233 0 l 1,4,-1
 909 0 l 1,5,-1
 729 377 l 2,6,7
 721 393 721 393 708 421 c 0,8,9
 629 590 629 590 522 590 c 2,10,-1
 428 590 l 1,11,-1
 428 0 l 1,12,-1
 133 0 l 1,13,-1
 133 1493 l 1,14,-1
 559 1493 l 2,15,16
 847 1493 847 1493 972.5 1391 c 128,-1,17
 1098 1289 1098 1289 1098 1059 c 0,18,19
 1098 905 1098 905 1023 814 c 128,-1,20
 948 723 948 723 807 705 c 1,0,1
428 1245 m 1,21,-1
 428 838 l 1,22,-1
 567 838 l 2,23,24
 688 838 688 838 740.5 885.5 c 128,-1,25
 793 933 793 933 793 1042 c 0,26,27
 793 1151 793 1151 741 1198 c 128,-1,28
 689 1245 689 1245 567 1245 c 2,29,-1
 428 1245 l 1,21,-1
EndSplineSet
EndChar
StartChar: S
Encoding: 83 83 54
Width: 1233
Flags: W
Fore
510 655 m 2,0,1
 287 740 287 740 208 833.5 c 128,-1,2
 129 927 129 927 129 1085 c 0,3,4
 129 1288 129 1288 259 1404 c 128,-1,5
 389 1520 389 1520 616 1520 c 0,6,7
 719 1520 719 1520 822 1496.5 c 128,-1,8
 925 1473 925 1473 1026 1427 c 1,9,-1
 1026 1139 l 1,10,11
 931 1206 931 1206 833 1241 c 128,-1,12
 735 1276 735 1276 639 1276 c 0,13,14
 532 1276 532 1276 475 1233 c 128,-1,15
 418 1190 418 1190 418 1110 c 0,16,17
 418 1048 418 1048 459.5 1007.5 c 128,-1,18
 501 967 501 967 633 918 c 2,19,-1
 760 870 l 2,20,21
 940 804 940 804 1025 695 c 128,-1,22
 1110 586 1110 586 1110 420 c 0,23,24
 1110 194 1110 194 976.5 82.5 c 128,-1,25
 843 -29 843 -29 573 -29 c 0,26,27
 462 -29 462 -29 350.5 -2.5 c 128,-1,28
 239 24 239 24 135 76 c 1,29,-1
 135 381 l 1,30,31
 253 297 253 297 363.5 256 c 128,-1,32
 474 215 474 215 582 215 c 0,33,34
 691 215 691 215 751 264.5 c 128,-1,35
 811 314 811 314 811 403 c 0,36,37
 811 470 811 470 771 520.5 c 128,-1,38
 731 571 731 571 655 600 c 2,39,-1
 510 655 l 2,0,1
EndSplineSet
EndChar
StartChar: T
Encoding: 84 84 55
Width: 1233
Flags: W
Fore
764 0 m 1,0,-1
 469 0 l 1,1,-1
 469 1235 l 1,2,-1
 90 1235 l 1,3,-1
 90 1493 l 1,4,-1
 1143 1493 l 1,5,-1
 1143 1235 l 1,6,-1
 764 1235 l 1,7,-1
 764 0 l 1,0,-1
EndSplineSet
EndChar
StartChar: U
Encoding: 85 85 56
Width: 1233
Flags: W
Fore
106 551 m 2,0,-1
 106 1493 l 1,1,-1
 401 1493 l 1,2,-1
 401 477 l 2,3,4
 401 365 401 365 458 301.5 c 128,-1,5
 515 238 515 238 616 238 c 0,6,7
 717 238 717 238 774 301.5 c 128,-1,8
 831 365 831 365 831 477 c 2,9,-1
 831 1493 l 1,10,-1
 1126 1493 l 1,11,-1
 1126 551 l 2,12,13
 1126 247 1126 247 1005 109 c 128,-1,14
 884 -29 884 -29 616 -29 c 0,15,16
 349 -29 349 -29 227.5 109 c 128,-1,17
 106 247 106 247 106 551 c 2,0,-1
EndSplineSet
EndChar
StartChar: V
Encoding: 86 86 57
Width: 1233
Flags: W
Fore
616 246 m 1,0,-1
 879 1493 l 1,1,-1
 1176 1493 l 1,2,-1
 821 0 l 1,3,-1
 412 0 l 1,4,-1
 57 1493 l 1,5,-1
 354 1493 l 1,6,-1
 616 246 l 1,0,-1
EndSplineSet
EndChar
StartChar: W
Encoding: 87 87 58
Width: 1233
Flags: W
Fore
0 1493 m 1,0,-1
 258 1493 l 1,1,-1
 365 397 l 1,2,-1
 494 1106 l 1,3,-1
 739 1106 l 1,4,-1
 889 397 l 1,5,-1
 973 1493 l 1,6,-1
 1233 1493 l 1,7,-1
 1061 0 l 1,8,-1
 786 0 l 1,9,-1
 616 784 l 1,10,-1
 457 0 l 1,11,-1
 184 0 l 1,12,-1
 0 1493 l 1,0,-1
EndSplineSet
EndChar
StartChar: X
Encoding: 88 88 59
Width: 1233
Flags: W
Fore
1206 0 m 1,0,-1
 901 0 l 1,1,-1
 616 494 l 1,2,-1
 332 0 l 1,3,-1
 27 0 l 1,4,-1
 465 758 l 1,5,-1
 39 1493 l 1,6,-1
 344 1493 l 1,7,-1
 616 1018 l 1,8,-1
 889 1493 l 1,9,-1
 1194 1493 l 1,10,-1
 770 758 l 1,11,-1
 1206 0 l 1,0,-1
EndSplineSet
EndChar
StartChar: Y
Encoding: 89 89 60
Width: 1233
Flags: W
Fore
8 1493 m 1,0,-1
 326 1493 l 1,1,-1
 616 893 l 1,2,-1
 907 1493 l 1,3,-1
 1225 1493 l 1,4,-1
 764 588 l 1,5,-1
 764 0 l 1,6,-1
 469 0 l 1,7,-1
 469 588 l 1,8,-1
 8 1493 l 1,0,-1
EndSplineSet
EndChar
StartChar: Z
Encoding: 90 90 61
Width: 1233
Flags: W
Fore
137 1493 m 1,0,-1
 1147 1493 l 1,1,-1
 1147 1249 l 1,2,-1
 455 260 l 1,3,-1
 1161 260 l 1,4,-1
 1161 0 l 1,5,-1
 115 0 l 1,6,-1
 115 244 l 1,7,-1
 786 1233 l 1,8,-1
 137 1233 l 1,9,-1
 137 1493 l 1,0,-1
EndSplineSet
EndChar
StartChar: bracketleft
Encoding: 91 91 62
Width: 1233
Flags: W
Fore
422 1556 m 1,0,-1
 930 1556 l 1,1,-1
 930 1366 l 1,2,-1
 688 1366 l 1,3,-1
 688 -80 l 1,4,-1
 930 -80 l 1,5,-1
 930 -270 l 1,6,-1
 422 -270 l 1,7,-1
 422 1556 l 1,0,-1
EndSplineSet
EndChar
StartChar: backslash
Encoding: 92 92 63
Width: 1233
Flags: W
Fore
334 1493 m 1,0,-1
 1120 -190 l 1,1,-1
 897 -190 l 1,2,-1
 111 1493 l 1,3,-1
 334 1493 l 1,0,-1
EndSplineSet
EndChar
StartChar: bracketright
Encoding: 93 93 64
Width: 1233
Flags: W
Fore
811 1556 m 1,0,-1
 811 -270 l 1,1,-1
 303 -270 l 1,2,-1
 303 -80 l 1,3,-1
 545 -80 l 1,4,-1
 545 1366 l 1,5,-1
 303 1366 l 1,6,-1
 303 1556 l 1,7,-1
 811 1556 l 1,0,-1
EndSplineSet
EndChar
StartChar: asciicircum
Encoding: 94 94 65
Width: 1233
Flags: W
Fore
739 1493 m 1,0,-1
 1176 936 l 1,1,-1
 934 936 l 1,2,-1
 616 1237 l 1,3,-1
 299 936 l 1,4,-1
 57 936 l 1,5,-1
 494 1493 l 1,6,-1
 739 1493 l 1,0,-1
EndSplineSet
EndChar
StartChar: underscore
Encoding: 95 95 66
Width: 1233
Flags: W
Fore
1233 -293 m 1,0,-1
 1233 -483 l 1,1,-1
 0 -483 l 1,2,-1
 0 -293 l 1,3,-1
 1233 -293 l 1,0,-1
EndSplineSet
EndChar
StartChar: grave
Encoding: 96 96 67
Width: 1233
Flags: W
Fore
481 1638 m 1,0,-1
 764 1262 l 1,1,-1
 567 1262 l 1,2,-1
 199 1638 l 1,3,-1
 481 1638 l 1,0,-1
EndSplineSet
EndChar
StartChar: a
Encoding: 97 97 68
Width: 1233
Flags: W
Fore
700 526 m 2,0,1
 536 526 536 526 471 484 c 128,-1,2
 406 442 406 442 406 340 c 0,3,4
 406 264 406 264 451 219 c 128,-1,5
 496 174 496 174 573 174 c 0,6,7
 689 174 689 174 753 261.5 c 128,-1,8
 817 349 817 349 817 506 c 2,9,-1
 817 526 l 1,10,-1
 700 526 l 2,0,1
1108 639 m 2,11,-1
 1108 0 l 1,12,-1
 817 0 l 1,13,-1
 817 125 l 1,14,15
 764 51 764 51 681 11 c 128,-1,16
 598 -29 598 -29 498 -29 c 0,17,18
 307 -29 307 -29 200.5 72 c 128,-1,19
 94 173 94 173 94 354 c 0,20,21
 94 550 94 550 221 643.5 c 128,-1,22
 348 737 348 737 614 737 c 2,23,-1
 817 737 l 1,24,-1
 817 786 l 2,25,26
 817 857 817 857 765.5 893.5 c 128,-1,27
 714 930 714 930 614 930 c 0,28,29
 509 930 509 930 410.5 903.5 c 128,-1,30
 312 877 312 877 205 819 c 1,31,-1
 205 1069 l 1,32,33
 302 1109 302 1109 402 1128 c 128,-1,34
 502 1147 502 1147 614 1147 c 0,35,36
 887 1147 887 1147 997.5 1036 c 128,-1,37
 1108 925 1108 925 1108 639 c 2,11,-1
EndSplineSet
EndChar
StartChar: b
Encoding: 98 98 69
Width: 1233
Flags: W
Fore
850 557 m 0,0,1
 850 719 850 719 796 811 c 128,-1,2
 742 903 742 903 647 903 c 0,3,4
 552 903 552 903 497 811 c 128,-1,5
 442 719 442 719 442 557 c 0,6,7
 442 395 442 395 497 303 c 128,-1,8
 552 211 552 211 647 211 c 0,9,10
 742 211 742 211 796 303 c 128,-1,11
 850 395 850 395 850 557 c 0,0,1
442 961 m 1,12,13
 496 1054 496 1054 567.5 1100.5 c 128,-1,14
 639 1147 639 1147 729 1147 c 0,15,16
 928 1147 928 1147 1035.5 995 c 128,-1,17
 1143 843 1143 843 1143 559 c 0,18,19
 1143 279 1143 279 1037 125 c 128,-1,20
 931 -29 931 -29 739 -29 c 0,21,22
 638 -29 638 -29 563 20 c 128,-1,23
 488 69 488 69 442 166 c 1,24,-1
 442 0 l 1,25,-1
 150 0 l 1,26,-1
 150 1556 l 1,27,-1
 442 1556 l 1,28,-1
 442 961 l 1,12,13
EndSplineSet
EndChar
StartChar: c
Encoding: 99 99 70
Width: 1233
Flags: W
Fore
1061 57 m 1,0,1
 987 14 987 14 902 -7.5 c 128,-1,2
 817 -29 817 -29 719 -29 c 0,3,4
 460 -29 460 -29 314 127 c 128,-1,5
 168 283 168 283 168 559 c 0,6,7
 168 836 168 836 315 992.5 c 128,-1,8
 462 1149 462 1149 721 1149 c 0,9,10
 811 1149 811 1149 894.5 1128 c 128,-1,11
 978 1107 978 1107 1061 1063 c 1,12,-1
 1061 795 l 1,13,14
 997 850 997 850 920.5 879.5 c 128,-1,15
 844 909 844 909 762 909 c 0,16,17
 619 909 619 909 542 818 c 128,-1,18
 465 727 465 727 465 559 c 0,19,20
 465 391 465 391 542 301 c 128,-1,21
 619 211 619 211 762 211 c 0,22,23
 847 211 847 211 921 239.5 c 128,-1,24
 995 268 995 268 1061 326 c 1,25,-1
 1061 57 l 1,0,1
EndSplineSet
EndChar
StartChar: d
Encoding: 100 100 71
Width: 1233
Flags: W
Fore
791 961 m 1,0,-1
 791 1556 l 1,1,-1
 1083 1556 l 1,2,-1
 1083 0 l 1,3,-1
 791 0 l 1,4,-1
 791 166 l 1,5,6
 744 69 744 69 669.5 20 c 128,-1,7
 595 -29 595 -29 494 -29 c 0,8,9
 302 -29 302 -29 196 125 c 128,-1,10
 90 279 90 279 90 559 c 0,11,12
 90 843 90 843 197.5 995 c 128,-1,13
 305 1147 305 1147 504 1147 c 0,14,15
 594 1147 594 1147 665.5 1100.5 c 128,-1,16
 737 1054 737 1054 791 961 c 1,0,-1
383 557 m 0,17,18
 383 395 383 395 437 303 c 128,-1,19
 491 211 491 211 586 211 c 0,20,21
 681 211 681 211 736 303 c 128,-1,22
 791 395 791 395 791 557 c 0,23,24
 791 719 791 719 736 811 c 128,-1,25
 681 903 681 903 586 903 c 0,26,27
 491 903 491 903 437 811 c 128,-1,28
 383 719 383 719 383 557 c 0,17,18
EndSplineSet
EndChar
StartChar: e
Encoding: 101 101 72
Width: 1233
Flags: W
Fore
1102 55 m 1,0,1
 1000 13 1000 13 894 -8 c 128,-1,2
 788 -29 788 -29 670 -29 c 0,3,4
 389 -29 389 -29 240.5 121.5 c 128,-1,5
 92 272 92 272 92 555 c 0,6,7
 92 829 92 829 235 988 c 128,-1,8
 378 1147 378 1147 625 1147 c 0,9,10
 874 1147 874 1147 1011.5 999.5 c 128,-1,11
 1149 852 1149 852 1149 584 c 2,12,-1
 1149 465 l 1,13,-1
 390 465 l 1,14,15
 391 333 391 333 468 268 c 128,-1,16
 545 203 545 203 698 203 c 0,17,18
 799 203 799 203 897 232 c 128,-1,19
 995 261 995 261 1102 324 c 1,20,-1
 1102 55 l 1,0,1
854 685 m 1,21,22
 852 801 852 801 794.5 860.5 c 128,-1,23
 737 920 737 920 625 920 c 0,24,25
 524 920 524 920 464 858.5 c 128,-1,26
 404 797 404 797 393 684 c 1,27,-1
 854 685 l 1,21,22
EndSplineSet
EndChar
StartChar: f
Encoding: 102 102 73
Width: 1233
Flags: W
Fore
739 1218 m 1,0,-1
 739 1120 l 1,1,-1
 1083 1120 l 1,2,-1
 1083 895 l 1,3,-1
 739 895 l 1,4,-1
 739 0 l 1,5,-1
 446 0 l 1,6,-1
 446 895 l 1,7,-1
 174 895 l 1,8,-1
 174 1120 l 1,9,-1
 446 1120 l 1,10,-1
 446 1198 l 2,11,12
 446 1400 446 1400 530 1478 c 128,-1,13
 614 1556 614 1556 842 1556 c 2,14,-1
 1083 1556 l 1,15,-1
 1083 1331 l 1,16,-1
 854 1331 l 2,17,18
 788 1331 788 1331 764.5 1307 c 128,-1,19
 741 1283 741 1283 739 1218 c 1,0,-1
EndSplineSet
EndChar
StartChar: g
Encoding: 103 103 74
Width: 1233
Flags: W
Fore
803 578 m 0,0,1
 803 728 803 728 746 818.5 c 128,-1,2
 689 909 689 909 596 909 c 0,3,4
 504 909 504 909 447.5 819 c 128,-1,5
 391 729 391 729 391 578 c 0,6,7
 391 426 391 426 447.5 336 c 128,-1,8
 504 246 504 246 596 246 c 0,9,10
 689 246 689 246 746 336.5 c 128,-1,11
 803 427 803 427 803 578 c 0,0,1
1096 84 m 2,12,13
 1096 -185 1096 -185 974.5 -304.5 c 128,-1,14
 853 -424 853 -424 580 -424 c 0,15,16
 488 -424 488 -424 398 -410.5 c 128,-1,17
 308 -397 308 -397 215 -369 c 1,18,-1
 215 -100 l 1,19,20
 298 -146 298 -146 384 -168 c 128,-1,21
 470 -190 470 -190 561 -190 c 0,22,23
 685 -190 685 -190 744 -131.5 c 128,-1,24
 803 -73 803 -73 803 51 c 2,25,-1
 803 172 l 1,26,27
 760 92 760 92 689 53 c 128,-1,28
 618 14 618 14 516 14 c 0,29,30
 324 14 324 14 211 164 c 128,-1,31
 98 314 98 314 98 571 c 0,32,33
 98 837 98 837 211 993 c 128,-1,34
 324 1149 324 1149 514 1149 c 0,35,36
 610 1149 610 1149 685 1104 c 128,-1,37
 760 1059 760 1059 803 977 c 1,38,-1
 803 1120 l 1,39,-1
 1096 1120 l 1,40,-1
 1096 84 l 2,12,13
EndSplineSet
EndChar
StartChar: h
Encoding: 104 104 75
Width: 1233
Flags: W
Fore
1071 727 m 2,0,-1
 1071 0 l 1,1,-1
 780 0 l 1,2,-1
 780 682 l 2,3,4
 780 803 780 803 745.5 855 c 128,-1,5
 711 907 711 907 633 907 c 0,6,7
 553 907 553 907 508 836.5 c 128,-1,8
 463 766 463 766 463 641 c 2,9,-1
 463 0 l 1,10,-1
 172 0 l 1,11,-1
 172 1556 l 1,12,-1
 463 1556 l 1,13,-1
 463 952 l 1,14,15
 494 1045 494 1045 569 1096 c 128,-1,16
 644 1147 644 1147 750 1147 c 0,17,18
 909 1147 909 1147 990 1041.5 c 128,-1,19
 1071 936 1071 936 1071 727 c 2,0,-1
EndSplineSet
EndChar
StartChar: i
Encoding: 105 105 76
Width: 1233
Flags: W
Fore
221 1120 m 1,0,-1
 801 1120 l 1,1,-1
 801 225 l 1,2,-1
 1165 225 l 1,3,-1
 1165 0 l 1,4,-1
 143 0 l 1,5,-1
 143 225 l 1,6,-1
 508 225 l 1,7,-1
 508 895 l 1,8,-1
 221 895 l 1,9,-1
 221 1120 l 1,0,-1
508 1665 m 1,10,-1
 801 1665 l 1,11,-1
 801 1323 l 1,12,-1
 508 1323 l 1,13,-1
 508 1665 l 1,10,-1
EndSplineSet
EndChar
StartChar: j
Encoding: 106 106 77
Width: 1233
Flags: W
Fore
850 43 m 2,0,1
 850 -209 850 -209 759.5 -316.5 c 128,-1,2
 669 -424 669 -424 459 -424 c 2,3,-1
 143 -424 l 1,4,-1
 143 -199 l 1,5,-1
 377 -199 l 2,6,7
 475 -199 475 -199 516 -144 c 128,-1,8
 557 -89 557 -89 557 43 c 2,9,-1
 557 895 l 1,10,-1
 260 895 l 1,11,-1
 260 1120 l 1,12,-1
 850 1120 l 1,13,-1
 850 43 l 2,0,1
850 1323 m 1,14,-1
 557 1323 l 1,15,-1
 557 1665 l 1,16,-1
 850 1665 l 1,17,-1
 850 1323 l 1,14,-1
EndSplineSet
EndChar
StartChar: k
Encoding: 107 107 78
Width: 1233
Flags: W
Fore
174 1556 m 1,0,-1
 467 1556 l 1,1,-1
 467 739 l 1,2,-1
 819 1120 l 1,3,-1
 1174 1120 l 1,4,-1
 750 702 l 1,5,-1
 1198 0 l 1,6,-1
 874 0 l 1,7,-1
 567 524 l 1,8,-1
 467 428 l 1,9,-1
 467 0 l 1,10,-1
 174 0 l 1,11,-1
 174 1556 l 1,0,-1
EndSplineSet
EndChar
StartChar: l
Encoding: 108 108 79
Width: 1233
Flags: W
Fore
387 467 m 2,0,-1
 387 1331 l 1,1,-1
 90 1331 l 1,2,-1
 90 1556 l 1,3,-1
 680 1556 l 1,4,-1
 680 467 l 2,5,6
 680 335 680 335 721 280 c 128,-1,7
 762 225 762 225 860 225 c 2,8,-1
 1094 225 l 1,9,-1
 1094 0 l 1,10,-1
 778 0 l 2,11,12
 569 0 569 0 478 108 c 128,-1,13
 387 216 387 216 387 467 c 2,0,-1
EndSplineSet
EndChar
StartChar: m
Encoding: 109 109 80
Width: 1233
Flags: W
Fore
690 1008 m 1,0,1
 723 1079 723 1079 774 1113 c 128,-1,2
 825 1147 825 1147 899 1147 c 0,3,4
 1044 1147 1044 1147 1099.5 1047 c 128,-1,5
 1155 947 1155 947 1155 631 c 2,6,-1
 1155 0 l 1,7,-1
 915 0 l 1,8,-1
 915 719 l 2,9,10
 915 844 915 844 896 886 c 128,-1,11
 877 928 877 928 827 928 c 0,12,13
 777 928 777 928 757 885 c 128,-1,14
 737 842 737 842 737 719 c 2,15,-1
 737 0 l 1,16,-1
 500 0 l 1,17,-1
 500 719 l 2,18,19
 500 842 500 842 480 885 c 128,-1,20
 460 928 460 928 410 928 c 0,21,22
 360 928 360 928 341 886 c 128,-1,23
 322 844 322 844 322 719 c 2,24,-1
 322 0 l 1,25,-1
 82 0 l 1,26,-1
 82 1120 l 1,27,-1
 295 1120 l 1,28,-1
 295 1004 l 1,29,30
 320 1070 320 1070 375 1108.5 c 128,-1,31
 430 1147 430 1147 498 1147 c 0,32,33
 566 1147 566 1147 622 1106.5 c 128,-1,34
 678 1066 678 1066 690 1008 c 1,0,1
EndSplineSet
EndChar
StartChar: n
Encoding: 110 110 81
Width: 1233
Flags: W
Fore
1071 727 m 2,0,-1
 1071 0 l 1,1,-1
 780 0 l 1,2,-1
 780 682 l 2,3,4
 780 804 780 804 745.5 856.5 c 128,-1,5
 711 909 711 909 633 909 c 0,6,7
 554 909 554 909 508.5 838 c 128,-1,8
 463 767 463 767 463 641 c 2,9,-1
 463 0 l 1,10,-1
 172 0 l 1,11,-1
 172 1120 l 1,12,-1
 463 1120 l 1,13,-1
 463 952 l 1,14,15
 494 1045 494 1045 569 1096 c 128,-1,16
 644 1147 644 1147 750 1147 c 0,17,18
 909 1147 909 1147 990 1041.5 c 128,-1,19
 1071 936 1071 936 1071 727 c 2,0,-1
EndSplineSet
EndChar
StartChar: o
Encoding: 111 111 82
Width: 1233
Flags: W
Fore
616 909 m 0,0,1
 511 909 511 909 451 816.5 c 128,-1,2
 391 724 391 724 391 559 c 0,3,4
 391 394 391 394 451 301.5 c 128,-1,5
 511 209 511 209 616 209 c 0,6,7
 722 209 722 209 782 301.5 c 128,-1,8
 842 394 842 394 842 559 c 0,9,10
 842 724 842 724 782 816.5 c 128,-1,11
 722 909 722 909 616 909 c 0,0,1
98 559 m 0,12,13
 98 830 98 830 238.5 988.5 c 128,-1,14
 379 1147 379 1147 616 1147 c 0,15,16
 854 1147 854 1147 994.5 988.5 c 128,-1,17
 1135 830 1135 830 1135 559 c 0,18,19
 1135 288 1135 288 994.5 129.5 c 128,-1,20
 854 -29 854 -29 616 -29 c 0,21,22
 379 -29 379 -29 238.5 129.5 c 128,-1,23
 98 288 98 288 98 559 c 0,12,13
EndSplineSet
EndChar
StartChar: p
Encoding: 112 112 83
Width: 1233
Flags: W
Fore
442 158 m 1,0,-1
 442 -426 l 1,1,-1
 150 -426 l 1,2,-1
 150 1120 l 1,3,-1
 442 1120 l 1,4,-1
 442 952 l 1,5,6
 488 1049 488 1049 563 1098 c 128,-1,7
 638 1147 638 1147 739 1147 c 0,8,9
 931 1147 931 1147 1037 993 c 128,-1,10
 1143 839 1143 839 1143 559 c 0,11,12
 1143 275 1143 275 1035.5 123 c 128,-1,13
 928 -29 928 -29 729 -29 c 0,14,15
 639 -29 639 -29 567.5 17.5 c 128,-1,16
 496 64 496 64 442 158 c 1,0,-1
850 561 m 0,17,18
 850 723 850 723 796 815 c 128,-1,19
 742 907 742 907 647 907 c 0,20,21
 552 907 552 907 497 815 c 128,-1,22
 442 723 442 723 442 561 c 0,23,24
 442 399 442 399 497 307 c 128,-1,25
 552 215 552 215 647 215 c 0,26,27
 742 215 742 215 796 307 c 128,-1,28
 850 399 850 399 850 561 c 0,17,18
EndSplineSet
EndChar
StartChar: q
Encoding: 113 113 84
Width: 1233
Flags: W
Fore
383 561 m 0,0,1
 383 399 383 399 437 307 c 128,-1,2
 491 215 491 215 586 215 c 0,3,4
 681 215 681 215 736 307 c 128,-1,5
 791 399 791 399 791 561 c 0,6,7
 791 723 791 723 736 815 c 128,-1,8
 681 907 681 907 586 907 c 0,9,10
 491 907 491 907 437 815 c 128,-1,11
 383 723 383 723 383 561 c 0,0,1
791 158 m 1,12,13
 737 64 737 64 665.5 17.5 c 128,-1,14
 594 -29 594 -29 504 -29 c 0,15,16
 305 -29 305 -29 197.5 123 c 128,-1,17
 90 275 90 275 90 559 c 0,18,19
 90 839 90 839 196 993 c 128,-1,20
 302 1147 302 1147 494 1147 c 0,21,22
 595 1147 595 1147 669.5 1098 c 128,-1,23
 744 1049 744 1049 791 952 c 1,24,-1
 791 1120 l 1,25,-1
 1083 1120 l 1,26,-1
 1083 -426 l 1,27,-1
 791 -426 l 1,28,-1
 791 158 l 1,12,13
EndSplineSet
EndChar
StartChar: r
Encoding: 114 114 85
Width: 1233
Flags: W
Fore
1151 811 m 1,0,1
 1103 855 1103 855 1038.5 877 c 128,-1,2
 974 899 974 899 897 899 c 0,3,4
 804 899 804 899 734.5 866.5 c 128,-1,5
 665 834 665 834 627 772 c 0,6,7
 603 734 603 734 593.5 680 c 128,-1,8
 584 626 584 626 584 516 c 2,9,-1
 584 0 l 1,10,-1
 291 0 l 1,11,-1
 291 1120 l 1,12,-1
 584 1120 l 1,13,-1
 584 946 l 1,14,15
 627 1042 627 1042 716 1094.5 c 128,-1,16
 805 1147 805 1147 924 1147 c 0,17,18
 984 1147 984 1147 1041.5 1132.5 c 128,-1,19
 1099 1118 1099 1118 1151 1090 c 1,20,-1
 1151 811 l 1,0,1
EndSplineSet
EndChar
StartChar: s
Encoding: 115 115 86
Width: 1233
Flags: W
Fore
991 1085 m 1,0,-1
 991 829 l 1,1,2
 910 881 910 881 822.5 907.5 c 128,-1,3
 735 934 735 934 647 934 c 0,4,5
 549 934 549 934 499 905.5 c 128,-1,6
 449 877 449 877 449 821 c 0,7,8
 449 741 449 741 663 691 c 2,9,-1
 674 688 l 1,10,-1
 758 668 l 2,11,12
 918 630 918 630 992.5 545.5 c 128,-1,13
 1067 461 1067 461 1067 317 c 0,14,15
 1067 144 1067 144 953.5 57.5 c 128,-1,16
 840 -29 840 -29 612 -29 c 0,17,18
 511 -29 511 -29 405 -11.5 c 128,-1,19
 299 6 299 6 190 41 c 1,20,-1
 190 297 l 1,21,22
 287 242 287 242 387.5 213 c 128,-1,23
 488 184 488 184 582 184 c 0,24,25
 685 184 685 184 738 214 c 128,-1,26
 791 244 791 244 791 301 c 0,27,28
 791 357 791 357 753.5 387 c 128,-1,29
 716 417 716 417 575 451 c 2,30,-1
 494 469 l 2,31,32
 326 507 326 507 249 588 c 128,-1,33
 172 669 172 669 172 805 c 0,34,35
 172 967 172 967 289 1057 c 128,-1,36
 406 1147 406 1147 618 1147 c 0,37,38
 713 1147 713 1147 807.5 1131.5 c 128,-1,39
 902 1116 902 1116 991 1085 c 1,0,-1
EndSplineSet
EndChar
StartChar: t
Encoding: 116 116 87
Width: 1233
Flags: W
Fore
690 1438 m 1,0,-1
 690 1120 l 1,1,-1
 1073 1120 l 1,2,-1
 1073 895 l 1,3,-1
 690 895 l 1,4,-1
 690 365 l 2,5,6
 690 290 690 290 726.5 257.5 c 128,-1,7
 763 225 763 225 848 225 c 2,8,-1
 1073 225 l 1,9,-1
 1073 0 l 1,10,-1
 827 0 l 2,11,12
 575 0 575 0 486 80.5 c 128,-1,13
 397 161 397 161 397 379 c 2,14,-1
 397 895 l 1,15,-1
 111 895 l 1,16,-1
 111 1120 l 1,17,-1
 397 1120 l 1,18,-1
 397 1438 l 1,19,-1
 690 1438 l 1,0,-1
EndSplineSet
EndChar
StartChar: u
Encoding: 117 117 88
Width: 1233
Flags: W
Fore
160 391 m 2,0,-1
 160 1120 l 1,1,-1
 453 1120 l 1,2,-1
 453 436 l 2,3,4
 453 315 453 315 487 263 c 128,-1,5
 521 211 521 211 600 211 c 0,6,7
 679 211 679 211 723.5 281 c 128,-1,8
 768 351 768 351 768 477 c 2,9,-1
 768 1120 l 1,10,-1
 1061 1120 l 1,11,-1
 1061 0 l 1,12,-1
 768 0 l 1,13,-1
 768 166 l 1,14,15
 737 73 737 73 662.5 22 c 128,-1,16
 588 -29 588 -29 483 -29 c 0,17,18
 323 -29 323 -29 241.5 77 c 128,-1,19
 160 183 160 183 160 391 c 2,0,-1
EndSplineSet
EndChar
StartChar: v
Encoding: 118 118 89
Width: 1233
Flags: W
Fore
1153 1120 m 1,0,-1
 797 0 l 1,1,-1
 436 0 l 1,2,-1
 80 1120 l 1,3,-1
 377 1120 l 1,4,-1
 616 246 l 1,5,-1
 856 1120 l 1,6,-1
 1153 1120 l 1,0,-1
EndSplineSet
EndChar
StartChar: w
Encoding: 119 119 90
Width: 1233
Flags: W
Fore
0 1120 m 1,0,-1
 244 1120 l 1,1,-1
 377 262 l 1,2,-1
 498 827 l 1,3,-1
 735 827 l 1,4,-1
 854 262 l 1,5,-1
 989 1120 l 1,6,-1
 1233 1120 l 1,7,-1
 1030 0 l 1,8,-1
 752 0 l 1,9,-1
 616 582 l 1,10,-1
 481 0 l 1,11,-1
 203 0 l 1,12,-1
 0 1120 l 1,0,-1
EndSplineSet
EndChar
StartChar: x
Encoding: 120 120 91
Width: 1233
Flags: W
Fore
1145 1120 m 1,0,-1
 768 584 l 1,1,-1
 1178 0 l 1,2,-1
 836 0 l 1,3,-1
 616 377 l 1,4,-1
 397 0 l 1,5,-1
 55 0 l 1,6,-1
 469 584 l 1,7,-1
 88 1120 l 1,8,-1
 430 1120 l 1,9,-1
 616 786 l 1,10,-1
 803 1120 l 1,11,-1
 1145 1120 l 1,0,-1
EndSplineSet
EndChar
StartChar: y
Encoding: 121 121 92
Width: 1233
Flags: W
Fore
711 -121 m 2,0,1
 652 -279 652 -279 569.5 -351.5 c 128,-1,2
 487 -424 487 -424 369 -424 c 2,3,-1
 127 -424 l 1,4,-1
 127 -201 l 1,5,-1
 246 -201 l 2,6,7
 336 -201 336 -201 378 -170.5 c 128,-1,8
 420 -140 420 -140 463 -29 c 1,9,-1
 485 31 l 1,10,-1
 59 1120 l 1,11,-1
 367 1120 l 1,12,-1
 623 393 l 1,13,-1
 868 1120 l 1,14,-1
 1176 1120 l 1,15,-1
 711 -121 l 2,0,1
EndSplineSet
EndChar
StartChar: z
Encoding: 122 122 93
Width: 1233
Flags: W
Fore
186 1120 m 1,0,-1
 1081 1120 l 1,1,-1
 1081 891 l 1,2,-1
 492 219 l 1,3,-1
 1081 219 l 1,4,-1
 1081 0 l 1,5,-1
 162 0 l 1,6,-1
 162 229 l 1,7,-1
 752 901 l 1,8,-1
 186 901 l 1,9,-1
 186 1120 l 1,0,-1
EndSplineSet
EndChar
StartChar: braceleft
Encoding: 123 123 94
Width: 1233
Flags: W
Fore
1053 -143 m 1,0,-1
 1053 -334 l 1,1,-1
 903 -334 l 2,2,3
 654 -334 654 -334 569.5 -260 c 128,-1,4
 485 -186 485 -186 485 35 c 2,5,-1
 485 250 l 2,6,7
 485 401 485 401 431.5 458.5 c 128,-1,8
 378 516 378 516 238 516 c 2,9,-1
 176 516 l 1,10,-1
 176 707 l 1,11,-1
 238 707 l 2,12,13
 378 707 378 707 431.5 764 c 128,-1,14
 485 821 485 821 485 973 c 2,15,-1
 485 1188 l 2,16,17
 485 1409 485 1409 569.5 1482.5 c 128,-1,18
 654 1556 654 1556 903 1556 c 2,19,-1
 1053 1556 l 1,20,-1
 1053 1366 l 1,21,-1
 930 1366 l 2,22,23
 826 1366 826 1366 791 1324 c 128,-1,24
 756 1282 756 1282 756 1139 c 2,25,-1
 756 930 l 2,26,27
 756 765 756 765 707 698 c 128,-1,28
 658 631 658 631 532 612 c 1,29,30
 658 591 658 591 707 523 c 128,-1,31
 756 455 756 455 756 291 c 2,32,-1
 756 86 l 2,33,34
 756 -58 756 -58 791 -100.5 c 128,-1,35
 826 -143 826 -143 930 -143 c 2,36,-1
 1053 -143 l 1,0,-1
EndSplineSet
EndChar
StartChar: bar
Encoding: 124 124 95
Width: 1233
Flags: W
Fore
729 1565 m 1,0,-1
 729 -483 l 1,1,-1
 502 -483 l 1,2,-1
 502 1565 l 1,3,-1
 729 1565 l 1,0,-1
EndSplineSet
EndChar
StartChar: braceright
Encoding: 125 125 96
Width: 1233
Flags: W
Fore
180 -143 m 1,0,-1
 301 -143 l 2,1,2
 405 -143 405 -143 441 -100 c 128,-1,3
 477 -57 477 -57 477 86 c 2,4,-1
 477 291 l 2,5,6
 477 455 477 455 526 523 c 128,-1,7
 575 591 575 591 700 612 c 1,8,9
 574 631 574 631 525.5 698 c 128,-1,10
 477 765 477 765 477 930 c 2,11,-1
 477 1139 l 2,12,13
 477 1280 477 1280 441.5 1323 c 128,-1,14
 406 1366 406 1366 301 1366 c 2,15,-1
 180 1366 l 1,16,-1
 180 1556 l 1,17,-1
 330 1556 l 2,18,19
 578 1556 578 1556 661.5 1482.5 c 128,-1,20
 745 1409 745 1409 745 1188 c 2,21,-1
 745 973 l 2,22,23
 745 822 745 822 799.5 764.5 c 128,-1,24
 854 707 854 707 995 707 c 2,25,-1
 1057 707 l 1,26,-1
 1057 516 l 1,27,-1
 995 516 l 2,28,29
 854 516 854 516 799.5 458 c 128,-1,30
 745 400 745 400 745 250 c 2,31,-1
 745 35 l 2,32,33
 745 -186 745 -186 661.5 -260 c 128,-1,34
 578 -334 578 -334 330 -334 c 2,35,-1
 180 -334 l 1,36,-1
 180 -143 l 1,0,-1
EndSplineSet
EndChar
StartChar: asciitilde
Encoding: 126 126 97
Width: 1233
Flags: W
Fore
1145 811 m 1,0,-1
 1145 578 l 1,1,2
 1070 518 1070 518 998.5 490.5 c 128,-1,3
 927 463 927 463 848 463 c 0,4,5
 758 463 758 463 645 514 c 0,6,7
 623 524 623 524 612 528 c 0,8,9
 535 562 535 562 483.5 574 c 128,-1,10
 432 586 432 586 381 586 c 0,11,12
 303 586 303 586 232.5 557 c 128,-1,13
 162 528 162 528 88 465 c 1,14,-1
 88 694 l 1,15,16
 166 755 166 755 239 782 c 128,-1,17
 312 809 312 809 395 809 c 0,18,19
 448 809 448 809 498 798 c 128,-1,20
 548 787 548 787 622 756 c 0,21,22
 633 751 633 751 655 741 c 0,23,24
 771 686 771 686 864 686 c 0,25,26
 934 686 934 686 1003 716.5 c 128,-1,27
 1072 747 1072 747 1145 811 c 1,0,-1
EndSplineSet
EndChar
StartChar: exclamdown
Encoding: 161 161 163
Width: 1233
Flags: W
Fore
750 1210 m 1,0,-1
 483 1210 l 1,1,-1
 483 1493 l 1,2,-1
 750 1493 l 1,3,-1
 750 1210 l 1,0,-1
750 0 m 1,4,-1
 483 0 l 1,5,-1
 483 655 l 1,6,-1
 516 1012 l 1,7,-1
 715 1012 l 1,8,-1
 750 655 l 1,9,-1
 750 0 l 1,4,-1
EndSplineSet
EndChar
StartChar: cent
Encoding: 162 162 132
Width: 1233
Flags: W
Fore
1036 1077 m 1,0,-1
 1036 809 l 1,1,2
 980 851 980 851 920 875.5 c 128,-1,3
 860 900 860 900 797 907 c 1,4,-1
 797 215 l 1,5,6
 861 220 861 220 920.5 244 c 128,-1,7
 980 268 980 268 1036 311 c 1,8,-1
 1036 43 l 1,9,10
 984 14 984 14 924 -3 c 128,-1,11
 864 -20 864 -20 797 -25 c 1,12,-1
 797 -313 l 1,13,-1
 655 -313 l 1,14,-1
 655 -25 l 1,15,16
 420 -3 420 -3 283.5 154 c 128,-1,17
 147 311 147 311 147 561 c 0,18,19
 147 816 147 816 283.5 972.5 c 128,-1,20
 420 1129 420 1129 655 1145 c 1,21,-1
 655 1432 l 1,22,-1
 797 1432 l 1,23,-1
 797 1145 l 1,24,25
 858 1140 858 1140 916.5 1123.5 c 128,-1,26
 975 1107 975 1107 1036 1077 c 1,0,-1
655 215 m 1,27,-1
 655 907 l 1,28,29
 541 893 541 893 479.5 803.5 c 128,-1,30
 418 714 418 714 418 561 c 0,31,32
 418 406 418 406 481 313.5 c 128,-1,33
 544 221 544 221 655 215 c 1,27,-1
EndSplineSet
EndChar
StartChar: sterling
Encoding: 163 163 133
Width: 1233
Flags: W
Fore
1102 1462 m 1,0,-1
 1102 1188 l 1,1,2
 1045 1229 1045 1229 980 1250.5 c 128,-1,3
 915 1272 915 1272 846 1272 c 0,4,5
 740 1272 740 1272 690.5 1205.5 c 128,-1,6
 641 1139 641 1139 641 995 c 2,7,-1
 641 819 l 1,8,-1
 977 819 l 1,9,-1
 977 594 l 1,10,-1
 641 594 l 1,11,-1
 641 260 l 1,12,-1
 1122 260 l 1,13,-1
 1122 0 l 1,14,-1
 119 0 l 1,15,-1
 119 260 l 1,16,-1
 354 260 l 1,17,-1
 354 594 l 1,18,-1
 156 594 l 1,19,-1
 156 819 l 1,20,-1
 354 819 l 1,21,-1
 354 1016 l 2,22,23
 354 1272 354 1272 466.5 1396 c 128,-1,24
 579 1520 579 1520 811 1520 c 0,25,26
 894 1520 894 1520 965 1505.5 c 128,-1,27
 1036 1491 1036 1491 1102 1462 c 1,0,-1
EndSplineSet
EndChar
StartChar: currency
Encoding: 164 164 189
Width: 1233
Flags: W
Fore
827 643 m 0,0,1
 827 716 827 716 777 765.5 c 128,-1,2
 727 815 727 815 653 815 c 0,3,4
 580 815 580 815 529.5 765.5 c 128,-1,5
 479 716 479 716 479 643 c 0,6,7
 479 569 479 569 529.5 518 c 128,-1,8
 580 467 580 467 653 467 c 0,9,10
 727 467 727 467 777 518 c 128,-1,11
 827 569 827 569 827 643 c 0,0,1
819 938 m 1,12,-1
 991 1108 l 1,13,-1
 1118 979 l 1,14,-1
 948 809 l 1,15,16
 971 768 971 768 982 726.5 c 128,-1,17
 993 685 993 685 993 641 c 0,18,19
 993 594 993 594 981.5 553.5 c 128,-1,20
 970 513 970 513 946 477 c 1,21,-1
 1118 307 l 1,22,-1
 987 176 l 1,23,-1
 817 348 l 1,24,25
 781 324 781 324 741 312.5 c 128,-1,26
 701 301 701 301 653 301 c 0,27,28
 614 301 614 301 572 311.5 c 128,-1,29
 530 322 530 322 485 344 c 1,30,-1
 315 176 l 1,31,-1
 186 305 l 1,32,-1
 356 475 l 1,33,34
 334 517 334 517 322.5 558.5 c 128,-1,35
 311 600 311 600 311 641 c 0,36,37
 311 688 311 688 322.5 728.5 c 128,-1,38
 334 769 334 769 358 807 c 1,39,-1
 186 977 l 1,40,-1
 317 1108 l 1,41,-1
 483 936 l 1,42,43
 524 960 524 960 565.5 971.5 c 128,-1,44
 607 983 607 983 653 983 c 0,45,46
 692 983 692 983 732.5 972 c 128,-1,47
 773 961 773 961 819 938 c 1,12,-1
EndSplineSet
EndChar
StartChar: yen
Encoding: 165 165 150
Width: 1233
Flags: W
Fore
8 1493 m 1,0,-1
 326 1493 l 1,1,-1
 616 893 l 1,2,-1
 907 1493 l 1,3,-1
 1225 1493 l 1,4,-1
 952 965 l 1,5,-1
 1176 965 l 1,6,-1
 1176 778 l 1,7,-1
 854 778 l 1,8,-1
 768 627 l 1,9,-1
 1176 627 l 1,10,-1
 1176 438 l 1,11,-1
 764 438 l 1,12,-1
 764 0 l 1,13,-1
 469 0 l 1,14,-1
 469 438 l 1,15,-1
 57 438 l 1,16,-1
 57 627 l 1,17,-1
 465 627 l 1,18,-1
 379 778 l 1,19,-1
 57 778 l 1,20,-1
 57 965 l 1,21,-1
 281 965 l 1,22,-1
 8 1493 l 1,0,-1
EndSplineSet
EndChar
StartChar: brokenbar
Encoding: 166 166 231
Width: 1233
Flags: W
Fore
729 408 m 1,0,-1
 729 -350 l 1,1,-1
 502 -350 l 1,2,-1
 502 408 l 1,3,-1
 729 408 l 1,0,-1
729 1432 m 1,4,-1
 729 674 l 1,5,-1
 502 674 l 1,6,-1
 502 1432 l 1,7,-1
 729 1432 l 1,4,-1
EndSplineSet
EndChar
StartChar: section
Encoding: 167 167 134
Width: 1233
Flags: W
Fore
518 856 m 1,0,1
 463 820 463 820 438.5 785.5 c 128,-1,2
 414 751 414 751 414 711 c 0,3,4
 414 657 414 657 462.5 613 c 128,-1,5
 511 569 511 569 711 473 c 1,6,7
 766 509 766 509 790.5 543.5 c 128,-1,8
 815 578 815 578 815 621 c 0,9,10
 815 702 815 702 550 840 c 2,11,-1
 518 856 l 1,0,1
930 1460 m 1,12,-1
 930 1235 l 1,13,14
 845 1265 845 1265 779 1279.5 c 128,-1,15
 713 1294 713 1294 659 1294 c 0,16,17
 583 1294 583 1294 540.5 1265 c 128,-1,18
 498 1236 498 1236 498 1184 c 0,19,20
 498 1109 498 1109 701 1004 c 0,21,22
 720 994 720 994 729 989 c 0,23,24
 943 879 943 879 1002 808.5 c 128,-1,25
 1061 738 1061 738 1061 637 c 0,26,27
 1061 548 1061 548 1013.5 484 c 128,-1,28
 966 420 966 420 864 373 c 1,29,30
 934 323 934 323 966.5 261.5 c 128,-1,31
 999 200 999 200 999 119 c 0,32,33
 999 -28 999 -28 894.5 -111.5 c 128,-1,34
 790 -195 790 -195 604 -195 c 0,35,36
 515 -195 515 -195 429 -180.5 c 128,-1,37
 343 -166 343 -166 258 -137 c 1,38,-1
 258 92 l 1,39,40
 343 62 343 62 424 46.5 c 128,-1,41
 505 31 505 31 578 31 c 0,42,43
 655 31 655 31 696 59.5 c 128,-1,44
 737 88 737 88 737 141 c 0,45,46
 737 211 737 211 523 326 c 2,47,-1
 512 332 l 1,48,-1
 486 346 l 2,49,50
 170 516 170 516 170 688 c 0,51,52
 170 782 170 782 222 851.5 c 128,-1,53
 274 921 274 921 371 954 c 1,54,55
 300 1004 300 1004 268 1064 c 128,-1,56
 236 1124 236 1124 236 1206 c 0,57,58
 236 1348 236 1348 340 1434 c 128,-1,59
 444 1520 444 1520 616 1520 c 0,60,61
 690 1520 690 1520 768.5 1505 c 128,-1,62
 847 1490 847 1490 930 1460 c 1,12,-1
EndSplineSet
EndChar
StartChar: dieresis
Encoding: 168 168 142
Width: 1233
Flags: W
Fore
696 1585 m 1,0,-1
 932 1585 l 1,1,-1
 932 1339 l 1,2,-1
 696 1339 l 1,3,-1
 696 1585 l 1,0,-1
301 1585 m 1,4,-1
 537 1585 l 1,5,-1
 537 1339 l 1,6,-1
 301 1339 l 1,7,-1
 301 1585 l 1,4,-1
EndSplineSet
Ligature: 0 0 'liga' space uni0308
EndChar
StartChar: copyright
Encoding: 169 169 139
Width: 1233
Flags: W
Fore
848 1049 m 1,0,-1
 848 881 l 1,1,2
 796 912 796 912 750.5 926 c 128,-1,3
 705 940 705 940 657 940 c 0,4,5
 560 940 560 940 506.5 888 c 128,-1,6
 453 836 453 836 453 741 c 0,7,8
 453 646 453 646 506 594.5 c 128,-1,9
 559 543 559 543 657 543 c 0,10,11
 710 543 710 543 758 557.5 c 128,-1,12
 806 572 806 572 848 602 c 1,13,-1
 848 434 l 1,14,15
 793 417 793 417 740 408 c 128,-1,16
 687 399 687 399 637 399 c 0,17,18
 468 399 468 399 367 492.5 c 128,-1,19
 266 586 266 586 266 741 c 0,20,21
 266 897 266 897 367 990 c 128,-1,22
 468 1083 468 1083 637 1083 c 0,23,24
 692 1083 692 1083 744.5 1074.5 c 128,-1,25
 797 1066 797 1066 848 1049 c 1,0,-1
616 1358 m 0,26,27
 743 1358 743 1358 852 1313 c 128,-1,28
 961 1268 961 1268 1051 1178 c 0,29,30
 1141 1087 1141 1087 1187 977 c 128,-1,31
 1233 867 1233 867 1233 741 c 0,32,33
 1233 616 1233 616 1187.5 507 c 128,-1,34
 1142 398 1142 398 1051 307 c 0,35,36
 960 216 960 216 851 170.5 c 128,-1,37
 742 125 742 125 616 125 c 0,38,39
 491 125 491 125 382 170.5 c 128,-1,40
 273 216 273 216 182 307 c 0,41,42
 91 398 91 398 45.5 507 c 128,-1,43
 0 616 0 616 0 741 c 0,44,45
 0 867 0 867 46 977 c 128,-1,46
 92 1087 92 1087 182 1178 c 0,47,48
 272 1268 272 1268 381 1313 c 128,-1,49
 490 1358 490 1358 616 1358 c 0,26,27
616 1229 m 0,50,51
 517 1229 517 1229 432 1193.5 c 128,-1,52
 347 1158 347 1158 274 1085 c 0,53,54
 203 1014 203 1014 167 928 c 128,-1,55
 131 842 131 842 131 741 c 0,56,57
 131 643 131 643 167 558 c 128,-1,58
 203 473 203 473 274 401 c 0,59,60
 345 329 345 329 431 292.5 c 128,-1,61
 517 256 517 256 616 256 c 0,62,63
 716 256 716 256 802 292.5 c 128,-1,64
 888 329 888 329 958 401 c 1,65,66
 1030 473 1030 473 1066 558 c 128,-1,67
 1102 643 1102 643 1102 741 c 0,68,69
 1102 842 1102 842 1066 928 c 128,-1,70
 1030 1014 1030 1014 958 1085 c 1,71,72
 886 1158 886 1158 801.5 1193.5 c 128,-1,73
 717 1229 717 1229 616 1229 c 0,50,51
EndSplineSet
EndChar
StartChar: ordfeminine
Encoding: 170 170 157
Width: 1233
Flags: W
Fore
786 1049 m 2,0,-1
 786 1079 l 1,1,-1
 684 1079 l 2,2,3
 575 1079 575 1079 525 1053 c 128,-1,4
 475 1027 475 1027 475 971 c 0,5,6
 475 922 475 922 505.5 894 c 128,-1,7
 536 866 536 866 590 866 c 0,8,9
 676 866 676 866 731 917.5 c 128,-1,10
 786 969 786 969 786 1049 c 2,0,-1
786 809 m 1,11,12
 736 752 736 752 675.5 725 c 128,-1,13
 615 698 615 698 537 698 c 0,14,15
 407 698 407 698 331.5 766.5 c 128,-1,16
 256 835 256 835 256 952 c 0,17,18
 256 1086 256 1086 348.5 1152.5 c 128,-1,19
 441 1219 441 1219 629 1219 c 2,20,-1
 786 1219 l 1,21,-1
 786 1245 l 2,22,23
 786 1294 786 1294 740.5 1318.5 c 128,-1,24
 695 1343 695 1343 604 1343 c 0,25,26
 522 1343 522 1343 450.5 1326.5 c 128,-1,27
 379 1310 379 1310 315 1276 c 1,28,-1
 315 1464 l 1,29,30
 388 1492 388 1492 462 1506 c 128,-1,31
 536 1520 536 1520 612 1520 c 0,32,33
 801 1520 801 1520 890 1434 c 128,-1,34
 979 1348 979 1348 979 1165 c 2,35,-1
 979 717 l 1,36,-1
 786 717 l 1,37,-1
 786 809 l 1,11,12
293 598 m 1,38,-1
 981 598 l 1,39,-1
 981 428 l 1,40,-1
 293 428 l 1,41,-1
 293 598 l 1,38,-1
EndSplineSet
EndChar
StartChar: guillemotleft
Encoding: 171 171 169
Width: 1233
Flags: W
Fore
1042 1059 m 1,0,-1
 1042 821 l 1,1,-1
 766 600 l 1,2,-1
 1042 379 l 1,3,-1
 1042 141 l 1,4,-1
 573 535 l 1,5,-1
 573 666 l 1,6,-1
 1042 1059 l 1,0,-1
588 1059 m 1,7,-1
 588 821 l 1,8,-1
 311 600 l 1,9,-1
 588 379 l 1,10,-1
 588 141 l 1,11,-1
 119 535 l 1,12,-1
 119 666 l 1,13,-1
 588 1059 l 1,7,-1
EndSplineSet
EndChar
StartChar: logicalnot
Encoding: 172 172 164
Width: 1233
Flags: W
Fore
88 899 m 1,0,-1
 1145 899 l 1,1,-1
 1145 362 l 1,2,-1
 907 362 l 1,3,-1
 907 662 l 1,4,-1
 88 662 l 1,5,-1
 88 899 l 1,0,-1
EndSplineSet
EndChar
StartChar: sfthyphen
Encoding: 173 173 256
Width: 1233
Flags: W
Fore
301 735 m 1,0,-1
 932 735 l 1,1,-1
 932 444 l 1,2,-1
 301 444 l 1,3,-1
 301 735 l 1,0,-1
EndSplineSet
EndChar
StartChar: registered
Encoding: 174 174 138
Width: 1233
Flags: W
Fore
616 1358 m 0,0,1
 743 1358 743 1358 852 1313 c 128,-1,2
 961 1268 961 1268 1051 1178 c 0,3,4
 1141 1087 1141 1087 1187 977 c 128,-1,5
 1233 867 1233 867 1233 741 c 0,6,7
 1233 616 1233 616 1187.5 507 c 128,-1,8
 1142 398 1142 398 1051 307 c 0,9,10
 960 216 960 216 851 170.5 c 128,-1,11
 742 125 742 125 616 125 c 0,12,13
 491 125 491 125 382 170.5 c 128,-1,14
 273 216 273 216 182 307 c 0,15,16
 91 398 91 398 45.5 507 c 128,-1,17
 0 616 0 616 0 741 c 0,18,19
 0 867 0 867 46 977 c 128,-1,20
 92 1087 92 1087 182 1178 c 0,21,22
 272 1268 272 1268 381 1313 c 128,-1,23
 490 1358 490 1358 616 1358 c 0,0,1
588 944 m 2,24,-1
 524 944 l 1,25,-1
 524 780 l 1,26,-1
 588 780 l 2,27,28
 645 780 645 780 673.5 800 c 128,-1,29
 702 820 702 820 702 860 c 0,30,31
 702 903 702 903 674 923.5 c 128,-1,32
 646 944 646 944 588 944 c 2,24,-1
606 1055 m 2,33,34
 739 1055 739 1055 803.5 1011 c 128,-1,35
 868 967 868 967 868 877 c 0,36,37
 868 812 868 812 829 769.5 c 128,-1,38
 790 727 790 727 719 715 c 1,39,40
 757 701 757 701 784.5 673 c 128,-1,41
 812 645 812 645 836 596 c 1,42,-1
 915 430 l 1,43,-1
 743 430 l 1,44,-1
 680 563 l 2,45,46
 653 621 653 621 624.5 644.5 c 128,-1,47
 596 668 596 668 555 670 c 2,48,-1
 524 670 l 1,49,-1
 524 430 l 1,50,-1
 360 430 l 1,51,-1
 360 1055 l 1,52,-1
 606 1055 l 2,33,34
616 1229 m 0,53,54
 517 1229 517 1229 432 1193.5 c 128,-1,55
 347 1158 347 1158 274 1085 c 0,56,57
 203 1014 203 1014 167 928 c 128,-1,58
 131 842 131 842 131 741 c 0,59,60
 131 643 131 643 167 558 c 128,-1,61
 203 473 203 473 274 399 c 1,62,63
 346 328 346 328 431.5 292 c 128,-1,64
 517 256 517 256 616 256 c 0,65,66
 715 256 715 256 801 292 c 128,-1,67
 887 328 887 328 958 399 c 0,68,69
 1030 473 1030 473 1066 558 c 128,-1,70
 1102 643 1102 643 1102 741 c 0,71,72
 1102 842 1102 842 1066 928 c 128,-1,73
 1030 1014 1030 1014 958 1085 c 1,74,75
 886 1158 886 1158 801.5 1193.5 c 128,-1,76
 717 1229 717 1229 616 1229 c 0,53,54
EndSplineSet
EndChar
StartChar: macron
Encoding: 175 175 217
Width: 1233
Flags: W
Fore
301 1556 m 1,0,-1
 932 1556 l 1,1,-1
 932 1368 l 1,2,-1
 301 1368 l 1,3,-1
 301 1556 l 1,0,-1
EndSplineSet
Ligature: 0 0 'liga' space uni0304
EndChar
StartChar: degree
Encoding: 176 176 131
Width: 1233
Flags: W
Fore
616 1520 m 0,0,1
 683 1520 683 1520 744 1494.5 c 128,-1,2
 805 1469 805 1469 852 1421 c 0,3,4
 899 1374 899 1374 923.5 1314 c 128,-1,5
 948 1254 948 1254 948 1186 c 0,6,7
 948 1120 948 1120 923 1059 c 128,-1,8
 898 998 898 998 852 952 c 0,9,10
 804 905 804 905 743 879.5 c 128,-1,11
 682 854 682 854 614 854 c 0,12,13
 473 854 473 854 378 949 c 128,-1,14
 283 1044 283 1044 283 1186 c 0,15,16
 283 1327 283 1327 379 1423.5 c 128,-1,17
 475 1520 475 1520 616 1520 c 0,0,1
616 1358 m 0,18,19
 544 1358 544 1358 494 1308 c 128,-1,20
 444 1258 444 1258 444 1186 c 0,21,22
 444 1114 444 1114 493 1065 c 128,-1,23
 542 1016 542 1016 614 1016 c 0,24,25
 686 1016 686 1016 736 1065.5 c 128,-1,26
 786 1115 786 1115 786 1186 c 0,27,28
 786 1258 786 1258 736.5 1308 c 128,-1,29
 687 1358 687 1358 616 1358 c 0,18,19
EndSplineSet
EndChar
StartChar: plusminus
Encoding: 177 177 147
Width: 1233
Flags: W
Fore
735 1284 m 1,0,-1
 735 930 l 1,1,-1
 1145 930 l 1,2,-1
 1145 694 l 1,3,-1
 735 694 l 1,4,-1
 735 340 l 1,5,-1
 498 340 l 1,6,-1
 498 694 l 1,7,-1
 88 694 l 1,8,-1
 88 930 l 1,9,-1
 498 930 l 1,10,-1
 498 1284 l 1,11,-1
 735 1284 l 1,0,-1
88 238 m 1,12,-1
 1145 238 l 1,13,-1
 1145 0 l 1,14,-1
 88 0 l 1,15,-1
 88 238 l 1,12,-1
EndSplineSet
EndChar
StartChar: twosuperior
Encoding: 178 178 241
Width: 1233
Flags: W
Fore
500 813 m 1,0,-1
 940 813 l 1,1,-1
 940 668 l 1,2,-1
 274 668 l 1,3,-1
 274 809 l 1,4,5
 325 852 325 852 415 927 c 0,6,7
 729 1189 729 1189 729 1268 c 0,8,9
 729 1320 729 1320 685.5 1350 c 128,-1,10
 642 1380 642 1380 567 1380 c 0,11,12
 511 1380 511 1380 443.5 1362.5 c 128,-1,13
 376 1345 376 1345 299 1311 c 1,14,-1
 299 1475 l 1,15,16
 374 1497 374 1497 445 1508.5 c 128,-1,17
 516 1520 516 1520 582 1520 c 0,18,19
 751 1520 751 1520 844.5 1457.5 c 128,-1,20
 938 1395 938 1395 938 1284 c 0,21,22
 938 1158 938 1158 583 878 c 0,23,24
 529 836 529 836 500 813 c 1,0,-1
EndSplineSet
EndChar
StartChar: threesuperior
Encoding: 179 179 242
Width: 1233
Flags: W
Fore
582 1042 m 2,0,-1
 471 1042 l 1,1,-1
 471 1188 l 1,2,-1
 582 1188 l 2,3,4
 656 1188 656 1188 698.5 1213 c 128,-1,5
 741 1238 741 1238 741 1282 c 0,6,7
 741 1327 741 1327 701.5 1352.5 c 128,-1,8
 662 1378 662 1378 592 1378 c 0,9,10
 523 1378 523 1378 454 1367 c 128,-1,11
 385 1356 385 1356 317 1333 c 1,12,-1
 317 1485 l 1,13,14
 386 1502 386 1502 455.5 1511 c 128,-1,15
 525 1520 525 1520 592 1520 c 0,16,17
 754 1520 754 1520 846 1462 c 128,-1,18
 938 1404 938 1404 938 1303 c 0,19,20
 938 1230 938 1230 885.5 1183 c 128,-1,21
 833 1136 833 1136 735 1120 c 1,22,23
 846 1105 846 1105 904.5 1049 c 128,-1,24
 963 993 963 993 963 901 c 0,25,26
 963 780 963 780 866.5 716.5 c 128,-1,27
 770 653 770 653 586 653 c 0,28,29
 511 653 511 653 436 663.5 c 128,-1,30
 361 674 361 674 287 694 c 1,31,-1
 287 848 l 1,32,33
 354 821 354 821 430 807 c 128,-1,34
 506 793 506 793 586 793 c 0,35,36
 671 793 671 793 718.5 825 c 128,-1,37
 766 857 766 857 766 913 c 0,38,39
 766 974 766 974 717 1008 c 128,-1,40
 668 1042 668 1042 582 1042 c 2,0,-1
EndSplineSet
EndChar
StartChar: acute
Encoding: 180 180 141
Width: 1233
Flags: W
Fore
752 1638 m 1,0,-1
 1034 1638 l 1,1,-1
 666 1262 l 1,2,-1
 469 1262 l 1,3,-1
 752 1638 l 1,0,-1
EndSplineSet
LCarets: 0 65535 '    ' 1 0 
Ligature: 0 0 'liga' space acutecomb
EndChar
StartChar: mu
Encoding: 181 181 151
Width: 1233
Flags: W
Fore
174 -428 m 1,0,-1
 174 1120 l 1,1,-1
 461 1120 l 1,2,-1
 461 440 l 2,3,4
 461 326 461 326 502 268.5 c 128,-1,5
 543 211 543 211 625 211 c 0,6,7
 706 211 706 211 746 268 c 128,-1,8
 786 325 786 325 786 440 c 2,9,-1
 786 1120 l 1,10,-1
 1075 1120 l 1,11,-1
 1075 344 l 2,12,13
 1075 273 1075 273 1088.5 242 c 128,-1,14
 1102 211 1102 211 1133 211 c 0,15,16
 1147 211 1147 211 1160 216.5 c 128,-1,17
 1173 222 1173 222 1188 233 c 1,18,-1
 1188 16 l 1,19,20
 1145 -7 1145 -7 1108 -18 c 128,-1,21
 1071 -29 1071 -29 1036 -29 c 0,22,23
 964 -29 964 -29 918.5 8.5 c 128,-1,24
 873 46 873 46 846 129 c 1,25,26
 809 51 809 51 754 11 c 128,-1,27
 699 -29 699 -29 629 -29 c 0,28,29
 570 -29 570 -29 528.5 -5.5 c 128,-1,30
 487 18 487 18 461 66 c 1,31,-1
 463 -428 l 1,32,-1
 174 -428 l 1,0,-1
EndSplineSet
EndChar
StartChar: paragraph
Encoding: 182 182 136
Width: 1233
Flags: W
Fore
545 1493 m 2,0,-1
 1065 1493 l 1,1,-1
 1065 -197 l 1,2,-1
 874 -197 l 1,3,-1
 874 1346 l 1,4,-1
 684 1346 l 1,5,-1
 684 -197 l 1,6,-1
 496 -197 l 1,7,-1
 496 649 l 1,8,9
 291 674 291 674 180.5 783.5 c 128,-1,10
 70 893 70 893 70 1071 c 0,11,12
 70 1261 70 1261 200 1377 c 128,-1,13
 330 1493 330 1493 545 1493 c 2,0,-1
EndSplineSet
EndChar
StartChar: periodcentered
Encoding: 183 183 195
Width: 1233
Flags: W
Fore
449 895 m 1,0,-1
 782 895 l 1,1,-1
 782 530 l 1,2,-1
 449 530 l 1,3,-1
 449 895 l 1,0,-1
EndSplineSet
EndChar
StartChar: cedilla
Encoding: 184 184 221
Width: 1233
Flags: W
Fore
707 0 m 1,0,1
 764 -62 764 -62 791.5 -115 c 128,-1,2
 819 -168 819 -168 819 -215 c 0,3,4
 819 -310 819 -310 757.5 -355.5 c 128,-1,5
 696 -401 696 -401 569 -401 c 0,6,7
 521 -401 521 -401 470.5 -394.5 c 128,-1,8
 420 -388 420 -388 367 -375 c 1,9,-1
 367 -219 l 1,10,11
 412 -236 412 -236 454 -245 c 128,-1,12
 496 -254 496 -254 532 -254 c 0,13,14
 590 -254 590 -254 622.5 -231 c 128,-1,15
 655 -208 655 -208 655 -168 c 0,16,17
 655 -142 655 -142 634 -101 c 128,-1,18
 613 -60 613 -60 567 0 c 1,19,-1
 707 0 l 1,0,1
EndSplineSet
Ligature: 0 0 'liga' space uni0327
EndChar
StartChar: onesuperior
Encoding: 185 185 240
Width: 1233
Flags: W
Fore
313 813 m 1,0,-1
 539 813 l 1,1,-1
 539 1356 l 1,2,-1
 319 1313 l 1,3,-1
 319 1462 l 1,4,-1
 541 1503 l 1,5,-1
 735 1503 l 1,6,-1
 735 813 l 1,7,-1
 961 813 l 1,8,-1
 961 668 l 1,9,-1
 313 668 l 1,10,-1
 313 813 l 1,0,-1
EndSplineSet
EndChar
StartChar: ordmasculine
Encoding: 186 186 158
Width: 1233
Flags: W
Fore
293 598 m 1,0,-1
 981 598 l 1,1,-1
 981 428 l 1,2,-1
 293 428 l 1,3,-1
 293 598 l 1,0,-1
274 1108 m 0,4,5
 274 1297 274 1297 372.5 1408.5 c 128,-1,6
 471 1520 471 1520 637 1520 c 0,7,8
 803 1520 803 1520 901 1409 c 128,-1,9
 999 1298 999 1298 999 1108 c 0,10,11
 999 919 999 919 901.5 808.5 c 128,-1,12
 804 698 804 698 637 698 c 0,13,14
 471 698 471 698 372.5 808.5 c 128,-1,15
 274 919 274 919 274 1108 c 0,4,5
637 1343 m 0,16,17
 564 1343 564 1343 521.5 1280 c 128,-1,18
 479 1217 479 1217 479 1108 c 0,19,20
 479 999 479 999 521.5 936.5 c 128,-1,21
 564 874 564 874 637 874 c 0,22,23
 710 874 710 874 752.5 936.5 c 128,-1,24
 795 999 795 999 795 1108 c 0,25,26
 795 1217 795 1217 752.5 1280 c 128,-1,27
 710 1343 710 1343 637 1343 c 0,16,17
EndSplineSet
EndChar
StartChar: guillemotright
Encoding: 187 187 170
Width: 1233
Flags: W
Fore
193 1059 m 1,0,-1
 662 666 l 1,1,-1
 662 535 l 1,2,-1
 193 141 l 1,3,-1
 193 379 l 1,4,-1
 469 600 l 1,5,-1
 193 821 l 1,6,-1
 193 1059 l 1,0,-1
647 1059 m 1,7,-1
 1116 666 l 1,8,-1
 1116 535 l 1,9,-1
 647 141 l 1,10,-1
 647 379 l 1,11,-1
 924 600 l 1,12,-1
 647 821 l 1,13,-1
 647 1059 l 1,7,-1
EndSplineSet
EndChar
StartChar: questiondown
Encoding: 191 191 162
Width: 1233
Flags: W
Fore
799 1210 m 1,0,-1
 532 1210 l 1,1,-1
 532 1493 l 1,2,-1
 799 1493 l 1,3,-1
 799 1210 l 1,0,-1
532 1092 m 1,4,-1
 799 1092 l 1,5,-1
 799 938 l 2,6,7
 799 839 799 839 768 768.5 c 128,-1,8
 737 698 737 698 657 621 c 1,9,-1
 567 532 l 2,10,11
 506 473 506 473 483.5 432.5 c 128,-1,12
 461 392 461 392 461 348 c 0,13,14
 461 281 461 281 507 247 c 128,-1,15
 553 213 553 213 645 213 c 0,16,17
 728 213 728 213 818.5 248.5 c 128,-1,18
 909 284 909 284 1006 354 c 1,19,-1
 1006 86 l 1,20,21
 908 30 908 30 807.5 1.5 c 128,-1,22
 707 -27 707 -27 606 -27 c 0,23,24
 405 -27 405 -27 290.5 67 c 128,-1,25
 176 161 176 161 176 326 c 0,26,27
 176 402 176 402 210 467.5 c 128,-1,28
 244 533 244 533 338 625 c 2,29,-1
 426 711 l 2,30,31
 492 775 492 775 511 817 c 128,-1,32
 530 859 530 859 530 922 c 0,33,34
 530 923 530 923 531 928 c 0,35,36
 532 949 532 949 532 969 c 2,37,-1
 532 1092 l 1,4,-1
EndSplineSet
EndChar
StartChar: Aring
Encoding: 197 197 99
Width: 1233
Flags: W
Fore
815 1421 m 1,0,-1
 1200 0 l 1,1,-1
 905 0 l 1,2,-1
 813 369 l 1,3,-1
 418 369 l 1,4,-1
 328 0 l 1,5,-1
 33 0 l 1,6,-1
 418 1421 l 1,7,8
 374 1458 374 1458 353 1506.5 c 128,-1,9
 332 1555 332 1555 332 1616 c 0,10,11
 332 1733 332 1733 415.5 1817 c 128,-1,12
 499 1901 499 1901 616 1901 c 0,13,14
 734 1901 734 1901 817.5 1817 c 128,-1,15
 901 1733 901 1733 901 1616 c 0,16,17
 901 1554 901 1554 880 1506.5 c 128,-1,18
 859 1459 859 1459 815 1421 c 1,0,-1
485 1616 m 0,19,20
 485 1562 485 1562 524 1523.5 c 128,-1,21
 563 1485 563 1485 616 1485 c 0,22,23
 671 1485 671 1485 709.5 1523.5 c 128,-1,24
 748 1562 748 1562 748 1616 c 0,25,26
 748 1670 748 1670 709 1708.5 c 128,-1,27
 670 1747 670 1747 616 1747 c 0,28,29
 563 1747 563 1747 524 1708.5 c 128,-1,30
 485 1670 485 1670 485 1616 c 0,19,20
616 1223 m 1,31,-1
 477 612 l 1,32,-1
 756 612 l 1,33,-1
 616 1223 l 1,31,-1
EndSplineSet
Ligature: 0 1 'liga' A uni030A
EndChar
StartChar: AE
Encoding: 198 198 144
Width: 1233
Flags: W
Fore
1161 1493 m 1,0,-1
 1161 1233 l 1,1,-1
 870 1233 l 1,2,-1
 870 922 l 1,3,-1
 1130 922 l 1,4,-1
 1130 662 l 1,5,-1
 870 662 l 1,6,-1
 870 260 l 1,7,-1
 1180 260 l 1,8,-1
 1180 0 l 1,9,-1
 616 0 l 1,10,-1
 616 362 l 1,11,-1
 334 362 l 1,12,-1
 248 0 l 1,13,-1
 0 0 l 1,14,-1
 358 1493 l 1,15,-1
 1161 1493 l 1,0,-1
537 1233 m 1,16,-1
 389 598 l 1,17,-1
 616 598 l 1,18,-1
 616 1233 l 1,19,-1
 537 1233 l 1,16,-1
EndSplineSet
EndChar
StartChar: Eth
Encoding: 208 208 232
Width: 1233
Flags: W
Fore
432 1227 m 1,0,-1
 432 901 l 1,1,-1
 643 901 l 1,2,-1
 643 664 l 1,3,-1
 432 664 l 1,4,-1
 432 266 l 1,5,-1
 512 266 l 2,6,7
 686 266 686 266 760 375.5 c 128,-1,8
 834 485 834 485 834 748 c 0,9,10
 834 1009 834 1009 760 1118 c 128,-1,11
 686 1227 686 1227 512 1227 c 2,12,-1
 432 1227 l 1,0,-1
137 1493 m 1,13,-1
 453 1493 l 2,14,15
 819 1493 819 1493 980 1318.5 c 128,-1,16
 1141 1144 1141 1144 1141 748 c 0,17,18
 1141 351 1141 351 980 175.5 c 128,-1,19
 819 0 819 0 453 0 c 2,20,-1
 137 0 l 1,21,-1
 137 664 l 1,22,-1
 0 664 l 1,23,-1
 0 901 l 1,24,-1
 137 901 l 1,25,-1
 137 1493 l 1,13,-1
EndSplineSet
EndChar
StartChar: multiply
Encoding: 215 215 239
Width: 1233
Flags: W
Fore
1112 971 m 1,0,-1
 782 643 l 1,1,-1
 1112 313 l 1,2,-1
 944 147 l 1,3,-1
 614 475 l 1,4,-1
 287 147 l 1,5,-1
 119 313 l 1,6,-1
 449 643 l 1,7,-1
 119 971 l 1,8,-1
 287 1139 l 1,9,-1
 614 811 l 1,10,-1
 944 1139 l 1,11,-1
 1112 971 l 1,0,-1
EndSplineSet
EndChar
StartChar: Oslash
Encoding: 216 216 145
Width: 1233
Flags: W
Fore
451 354 m 1,0,1
 475 297 475 297 517.5 266.5 c 128,-1,2
 560 236 560 236 616 236 c 0,3,4
 730 236 730 236 782 356.5 c 128,-1,5
 834 477 834 477 834 745 c 0,6,7
 834 773 834 773 833 804 c 128,-1,8
 832 835 832 835 829 888 c 1,9,-1
 451 354 l 1,0,1
772 1153 m 1,10,11
 746 1204 746 1204 707 1229.5 c 128,-1,12
 668 1255 668 1255 616 1255 c 0,13,14
 504 1255 504 1255 451.5 1135 c 128,-1,15
 399 1015 399 1015 399 756 c 2,16,-1
 399 629 l 1,17,-1
 772 1153 l 1,10,11
162 289 m 1,18,19
 127 377 127 377 109.5 490.5 c 128,-1,20
 92 604 92 604 92 745 c 0,21,22
 92 1128 92 1128 224.5 1324 c 128,-1,23
 357 1520 357 1520 616 1520 c 0,24,25
 719 1520 719 1520 802 1489 c 128,-1,26
 885 1458 885 1458 946 1397 c 1,27,-1
 1059 1559 l 1,28,-1
 1221 1444 l 1,29,-1
 1063 1221 l 1,30,31
 1102 1127 1102 1127 1121.5 1007.5 c 128,-1,32
 1141 888 1141 888 1141 745 c 0,33,34
 1141 363 1141 363 1008.5 167 c 128,-1,35
 876 -29 876 -29 616 -29 c 0,36,37
 510 -29 510 -29 425 4.5 c 128,-1,38
 340 38 340 38 276 104 c 1,39,-1
 156 -63 l 1,40,-1
 -6 51 l 1,41,-1
 162 289 l 1,18,19
EndSplineSet
EndChar
StartChar: Thorn
Encoding: 222 222 236
Width: 1233
Flags: W
Fore
457 1014 m 1,0,-1
 457 575 l 1,1,-1
 578 575 l 2,2,3
 724 575 724 575 782 624 c 128,-1,4
 840 673 840 673 840 793 c 0,5,6
 840 914 840 914 781.5 964 c 128,-1,7
 723 1014 723 1014 578 1014 c 2,8,-1
 457 1014 l 1,0,-1
162 1493 m 1,9,-1
 457 1493 l 1,10,-1
 457 1255 l 1,11,-1
 567 1255 l 2,12,13
 876 1255 876 1255 1011.5 1145.5 c 128,-1,14
 1147 1036 1147 1036 1147 788 c 0,15,16
 1147 549 1147 549 1010 440.5 c 128,-1,17
 873 332 873 332 567 332 c 2,18,-1
 457 332 l 1,19,-1
 457 0 l 1,20,-1
 162 0 l 1,21,-1
 162 1493 l 1,9,-1
EndSplineSet
EndChar
StartChar: germandbls
Encoding: 223 223 137
Width: 1233
Flags: W
Fore
1034 1059 m 1,0,1
 909 1053 909 1053 844.5 1007.5 c 128,-1,2
 780 962 780 962 780 881 c 0,3,4
 780 817 780 817 896 728 c 0,5,6
 909 718 909 718 915 713 c 2,7,-1
 1012 639 l 2,8,9
 1094 577 1094 577 1134 500.5 c 128,-1,10
 1174 424 1174 424 1174 330 c 0,11,12
 1174 163 1174 163 1062 67 c 128,-1,13
 950 -29 950 -29 756 -29 c 0,14,15
 695 -29 695 -29 633 -16.5 c 128,-1,16
 571 -4 571 -4 504 20 c 1,17,-1
 504 270 l 1,18,19
 562 239 562 239 619.5 223 c 128,-1,20
 677 207 677 207 731 207 c 0,21,22
 804 207 804 207 846.5 240.5 c 128,-1,23
 889 274 889 274 889 332 c 0,24,25
 889 404 889 404 774 492 c 0,26,27
 745 514 745 514 729 526 c 2,28,-1
 643 594 l 2,29,30
 584 642 584 642 554 705.5 c 128,-1,31
 524 769 524 769 524 846 c 0,32,33
 524 972 524 972 598 1057.5 c 128,-1,34
 672 1143 672 1143 809 1174 c 1,35,36
 800 1248 800 1248 751 1284.5 c 128,-1,37
 702 1321 702 1321 610 1321 c 0,38,39
 516 1321 516 1321 468 1270.5 c 128,-1,40
 420 1220 420 1220 420 1122 c 2,41,-1
 420 0 l 1,42,-1
 127 0 l 1,43,-1
 127 1126 l 2,44,45
 127 1337 127 1337 247.5 1446.5 c 128,-1,46
 368 1556 368 1556 598 1556 c 0,47,48
 821 1556 821 1556 927.5 1437.5 c 128,-1,49
 1034 1319 1034 1319 1034 1073 c 2,50,-1
 1034 1059 l 1,0,1
EndSplineSet
EndChar
StartChar: ae
Encoding: 230 230 160
Width: 1233
Flags: W
Fore
489 401 m 1,0,-1
 489 483 l 1,1,-1
 416 483 l 2,2,3
 329 483 329 483 284.5 444 c 128,-1,4
 240 405 240 405 240 330 c 0,5,6
 240 259 240 259 272 221.5 c 128,-1,7
 304 184 304 184 365 184 c 0,8,9
 428 184 428 184 458.5 227 c 128,-1,10
 489 270 489 270 489 358 c 2,11,-1
 489 401 l 1,0,-1
963 690 m 1,12,-1
 963 713 l 2,13,14
 963 838 963 838 938 885 c 128,-1,15
 913 932 913 932 850 932 c 0,16,17
 787 932 787 932 762 885 c 128,-1,18
 737 838 737 838 737 713 c 2,19,-1
 737 690 l 1,20,-1
 963 690 l 1,12,-1
1188 479 m 1,21,-1
 737 479 l 1,22,23
 737 335 737 335 787 259.5 c 128,-1,24
 837 184 837 184 932 184 c 0,25,26
 992 184 992 184 1052 213.5 c 128,-1,27
 1112 243 1112 243 1171 301 c 1,28,-1
 1171 57 l 1,29,30
 1121 13 1121 13 1058.5 -8 c 128,-1,31
 996 -29 996 -29 913 -29 c 0,32,33
 810 -29 810 -29 735 13 c 128,-1,34
 660 55 660 55 618 135 c 1,35,36
 577 51 577 51 511.5 11 c 128,-1,37
 446 -29 446 -29 348 -29 c 0,38,39
 188 -29 188 -29 101 63.5 c 128,-1,40
 14 156 14 156 14 326 c 0,41,42
 14 511 14 511 115 602.5 c 128,-1,43
 216 694 216 694 420 694 c 2,44,-1
 496 694 l 1,45,-1
 496 745 l 2,46,47
 496 838 496 838 457 885 c 128,-1,48
 418 932 418 932 342 932 c 0,49,50
 285 932 285 932 217.5 904.5 c 128,-1,51
 150 877 150 877 76 823 c 1,52,-1
 76 1069 l 1,53,54
 150 1108 150 1108 220 1127.5 c 128,-1,55
 290 1147 290 1147 354 1147 c 0,56,57
 452 1147 452 1147 514.5 1116 c 128,-1,58
 577 1085 577 1085 612 1020 c 1,59,60
 641 1081 641 1081 706.5 1114 c 128,-1,61
 772 1147 772 1147 864 1147 c 0,62,63
 1041 1147 1041 1147 1114.5 1028 c 128,-1,64
 1188 909 1188 909 1188 606 c 2,65,-1
 1188 479 l 1,21,-1
EndSplineSet
EndChar
StartChar: eth
Encoding: 240 240 233
Width: 1233
Flags: W
Fore
811 760 m 1,0,1
 762 787 762 787 713 801 c 128,-1,2
 664 815 664 815 616 815 c 0,3,4
 511 815 511 815 450 742.5 c 128,-1,5
 389 670 389 670 389 545 c 0,6,7
 389 387 389 387 448.5 298 c 128,-1,8
 508 209 508 209 612 209 c 0,9,10
 721 209 721 209 778.5 299.5 c 128,-1,11
 836 390 836 390 836 563 c 0,12,13
 836 608 836 608 829.5 657 c 128,-1,14
 823 706 823 706 811 760 c 1,0,1
940 1100 m 2,15,16
 1040 963 1040 963 1083 836.5 c 128,-1,17
 1126 710 1126 710 1126 559 c 0,18,19
 1126 283 1126 283 990 127 c 128,-1,20
 854 -29 854 -29 612 -29 c 0,21,22
 376 -29 376 -29 237 124 c 128,-1,23
 98 277 98 277 98 537 c 0,24,25
 98 773 98 773 228 913 c 128,-1,26
 358 1053 358 1053 575 1053 c 0,27,28
 615 1053 615 1053 646.5 1047 c 128,-1,29
 678 1041 678 1041 705 1028 c 1,30,-1
 545 1247 l 1,31,-1
 233 1128 l 1,32,-1
 178 1245 l 1,33,-1
 461 1354 l 1,34,-1
 303 1556 l 1,35,-1
 596 1556 l 1,36,-1
 688 1440 l 1,37,-1
 985 1567 l 1,38,-1
 1051 1444 l 1,39,-1
 774 1327 l 1,40,-1
 940 1100 l 2,15,16
EndSplineSet
EndChar
StartChar: ograve
Encoding: 242 242 122
Width: 1233
Flags: W
Fore
481 1561 m 1,0,-1
 764 1262 l 1,1,-1
 567 1262 l 1,2,-1
 199 1561 l 1,3,-1
 481 1561 l 1,0,-1
616 909 m 0,4,5
 511 909 511 909 451 816.5 c 128,-1,6
 391 724 391 724 391 559 c 0,7,8
 391 394 391 394 451 301.5 c 128,-1,9
 511 209 511 209 616 209 c 0,10,11
 722 209 722 209 782 301.5 c 128,-1,12
 842 394 842 394 842 559 c 0,13,14
 842 724 842 724 782 816.5 c 128,-1,15
 722 909 722 909 616 909 c 0,4,5
98 559 m 0,16,17
 98 830 98 830 238.5 988.5 c 128,-1,18
 379 1147 379 1147 616 1147 c 0,19,20
 854 1147 854 1147 994.5 988.5 c 128,-1,21
 1135 830 1135 830 1135 559 c 0,22,23
 1135 288 1135 288 994.5 129.5 c 128,-1,24
 854 -29 854 -29 616 -29 c 0,25,26
 379 -29 379 -29 238.5 129.5 c 128,-1,27
 98 288 98 288 98 559 c 0,16,17
EndSplineSet
LCarets: 0 65535 '    ' 1 0 
Ligature: 0 1 'liga' o gravecomb
EndChar
StartChar: oacute
Encoding: 243 243 121
Width: 1233
Flags: W
Fore
752 1561 m 1,0,-1
 1034 1561 l 1,1,-1
 666 1262 l 1,2,-1
 469 1262 l 1,3,-1
 752 1561 l 1,0,-1
616 909 m 0,4,5
 511 909 511 909 451 816.5 c 128,-1,6
 391 724 391 724 391 559 c 0,7,8
 391 394 391 394 451 301.5 c 128,-1,9
 511 209 511 209 616 209 c 0,10,11
 722 209 722 209 782 301.5 c 128,-1,12
 842 394 842 394 842 559 c 0,13,14
 842 724 842 724 782 816.5 c 128,-1,15
 722 909 722 909 616 909 c 0,4,5
98 559 m 0,16,17
 98 830 98 830 238.5 988.5 c 128,-1,18
 379 1147 379 1147 616 1147 c 0,19,20
 854 1147 854 1147 994.5 988.5 c 128,-1,21
 1135 830 1135 830 1135 559 c 0,22,23
 1135 288 1135 288 994.5 129.5 c 128,-1,24
 854 -29 854 -29 616 -29 c 0,25,26
 379 -29 379 -29 238.5 129.5 c 128,-1,27
 98 288 98 288 98 559 c 0,16,17
EndSplineSet
LCarets: 0 65535 '    ' 1 0 
Ligature: 0 1 'liga' o acutecomb
EndChar
StartChar: ocircumflex
Encoding: 244 244 123
Width: 1233
Flags: W
Fore
496 1561 m 1,0,-1
 737 1561 l 1,1,-1
 993 1262 l 1,2,-1
 815 1262 l 1,3,-1
 616 1409 l 1,4,-1
 418 1262 l 1,5,-1
 240 1262 l 1,6,-1
 496 1561 l 1,0,-1
616 909 m 0,7,8
 511 909 511 909 451 816.5 c 128,-1,9
 391 724 391 724 391 559 c 0,10,11
 391 394 391 394 451 301.5 c 128,-1,12
 511 209 511 209 616 209 c 0,13,14
 722 209 722 209 782 301.5 c 128,-1,15
 842 394 842 394 842 559 c 0,16,17
 842 724 842 724 782 816.5 c 128,-1,18
 722 909 722 909 616 909 c 0,7,8
98 559 m 0,19,20
 98 830 98 830 238.5 988.5 c 128,-1,21
 379 1147 379 1147 616 1147 c 0,22,23
 854 1147 854 1147 994.5 988.5 c 128,-1,24
 1135 830 1135 830 1135 559 c 0,25,26
 1135 288 1135 288 994.5 129.5 c 128,-1,27
 854 -29 854 -29 616 -29 c 0,28,29
 379 -29 379 -29 238.5 129.5 c 128,-1,30
 98 288 98 288 98 559 c 0,19,20
EndSplineSet
LCarets: 0 65535 '    ' 1 0 
Ligature: 0 1 'liga' o uni0302
EndChar
StartChar: otilde
Encoding: 245 245 125
Width: 1233
Flags: W
Fore
618 1331 m 2,0,-1
 563 1368 l 2,1,2
 560 1370 560 1370 551 1376 c 0,3,4
 508 1405 508 1405 481 1405 c 0,5,6
 447 1405 447 1405 427.5 1373 c 128,-1,7
 408 1341 408 1341 408 1284 c 2,8,-1
 408 1276 l 1,9,-1
 268 1276 l 1,10,-1
 268 1309 l 2,11,12
 268 1422 268 1422 322 1491.5 c 128,-1,13
 376 1561 376 1561 465 1561 c 0,14,15
 501 1561 501 1561 536.5 1547.5 c 128,-1,16
 572 1534 572 1534 614 1503 c 1,17,-1
 676 1460 l 2,18,19
 697 1445 697 1445 715.5 1437.5 c 128,-1,20
 734 1430 734 1430 750 1430 c 0,21,22
 786 1430 786 1430 805.5 1461 c 128,-1,23
 825 1492 825 1492 825 1550 c 2,24,-1
 825 1559 l 1,25,-1
 965 1559 l 1,26,27
 965 1552 965 1552 964 1541.5 c 128,-1,28
 963 1531 963 1531 963 1526 c 0,29,30
 963 1411 963 1411 909.5 1342.5 c 128,-1,31
 856 1274 856 1274 768 1274 c 0,32,33
 733 1274 733 1274 700.5 1285.5 c 128,-1,34
 668 1297 668 1297 618 1331 c 2,0,-1
616 909 m 0,35,36
 511 909 511 909 451 816.5 c 128,-1,37
 391 724 391 724 391 559 c 0,38,39
 391 394 391 394 451 301.5 c 128,-1,40
 511 209 511 209 616 209 c 0,41,42
 722 209 722 209 782 301.5 c 128,-1,43
 842 394 842 394 842 559 c 0,44,45
 842 724 842 724 782 816.5 c 128,-1,46
 722 909 722 909 616 909 c 0,35,36
98 559 m 0,47,48
 98 830 98 830 238.5 988.5 c 128,-1,49
 379 1147 379 1147 616 1147 c 0,50,51
 854 1147 854 1147 994.5 988.5 c 128,-1,52
 1135 830 1135 830 1135 559 c 0,53,54
 1135 288 1135 288 994.5 129.5 c 128,-1,55
 854 -29 854 -29 616 -29 c 0,56,57
 379 -29 379 -29 238.5 129.5 c 128,-1,58
 98 288 98 288 98 559 c 0,47,48
EndSplineSet
Ligature: 0 1 'liga' o tildecomb
EndChar
StartChar: odieresis
Encoding: 246 246 124
Width: 1233
Flags: W
Fore
301 1561 m 1,0,-1
 537 1561 l 1,1,-1
 537 1315 l 1,2,-1
 301 1315 l 1,3,-1
 301 1561 l 1,0,-1
696 1561 m 1,4,-1
 932 1561 l 1,5,-1
 932 1315 l 1,6,-1
 696 1315 l 1,7,-1
 696 1561 l 1,4,-1
616 909 m 0,8,9
 511 909 511 909 451 816.5 c 128,-1,10
 391 724 391 724 391 559 c 0,11,12
 391 394 391 394 451 301.5 c 128,-1,13
 511 209 511 209 616 209 c 0,14,15
 722 209 722 209 782 301.5 c 128,-1,16
 842 394 842 394 842 559 c 0,17,18
 842 724 842 724 782 816.5 c 128,-1,19
 722 909 722 909 616 909 c 0,8,9
98 559 m 0,20,21
 98 830 98 830 238.5 988.5 c 128,-1,22
 379 1147 379 1147 616 1147 c 0,23,24
 854 1147 854 1147 994.5 988.5 c 128,-1,25
 1135 830 1135 830 1135 559 c 0,26,27
 1135 288 1135 288 994.5 129.5 c 128,-1,28
 854 -29 854 -29 616 -29 c 0,29,30
 379 -29 379 -29 238.5 129.5 c 128,-1,31
 98 288 98 288 98 559 c 0,20,21
EndSplineSet
LCarets: 0 65535 '    ' 1 0 
Ligature: 0 1 'liga' o uni0308
EndChar
StartChar: divide
Encoding: 247 247 184
Width: 1233
Flags: W
Fore
461 1198 m 1,0,-1
 770 1198 l 1,1,-1
 770 889 l 1,2,-1
 461 889 l 1,3,-1
 461 1198 l 1,0,-1
461 395 m 1,4,-1
 770 395 l 1,5,-1
 770 86 l 1,6,-1
 461 86 l 1,7,-1
 461 395 l 1,4,-1
66 762 m 1,8,-1
 1165 762 l 1,9,-1
 1165 524 l 1,10,-1
 66 524 l 1,11,-1
 66 762 l 1,8,-1
EndSplineSet
EndChar
StartChar: oslash
Encoding: 248 248 161
Width: 1233
Flags: W
Fore
831 675 m 1,0,-1
 483 262 l 1,1,2
 514 235 514 235 547 222 c 128,-1,3
 580 209 580 209 618 209 c 0,4,5
 722 209 722 209 782 302.5 c 128,-1,6
 842 396 842 396 842 559 c 0,7,8
 842 588 842 588 839.5 617 c 128,-1,9
 837 646 837 646 831 675 c 1,0,-1
399 449 m 1,10,-1
 745 860 l 1,11,12
 719 885 719 885 688 897 c 128,-1,13
 657 909 657 909 618 909 c 0,14,15
 512 909 512 909 451.5 816.5 c 128,-1,16
 391 724 391 724 391 559 c 0,17,18
 391 525 391 525 393 499 c 128,-1,19
 395 473 395 473 399 449 c 1,10,-1
188 199 m 1,20,21
 143 272 143 272 120.5 361 c 128,-1,22
 98 450 98 450 98 559 c 0,23,24
 98 830 98 830 238.5 988.5 c 128,-1,25
 379 1147 379 1147 616 1147 c 0,26,27
 701 1147 701 1147 774.5 1125.5 c 128,-1,28
 848 1104 848 1104 915 1059 c 1,29,-1
 1063 1235 l 1,30,-1
 1202 1114 l 1,31,-1
 1042 926 l 1,32,33
 1088 850 1088 850 1111.5 758 c 128,-1,34
 1135 666 1135 666 1135 559 c 0,35,36
 1135 288 1135 288 994.5 129.5 c 128,-1,37
 854 -29 854 -29 616 -29 c 0,38,39
 533 -29 533 -29 457.5 -6.5 c 128,-1,40
 382 16 382 16 315 61 c 1,41,-1
 164 -117 l 1,42,-1
 25 2 l 1,43,-1
 188 199 l 1,20,21
EndSplineSet
EndChar
StartChar: thorn
Encoding: 254 254 237
Width: 1233
Flags: W
Fore
442 158 m 1,0,-1
 442 -426 l 1,1,-1
 150 -426 l 1,2,-1
 150 1556 l 1,3,-1
 442 1556 l 1,4,-1
 442 952 l 1,5,6
 488 1049 488 1049 563 1098 c 128,-1,7
 638 1147 638 1147 739 1147 c 0,8,9
 931 1147 931 1147 1037 993 c 128,-1,10
 1143 839 1143 839 1143 559 c 0,11,12
 1143 275 1143 275 1035.5 123 c 128,-1,13
 928 -29 928 -29 729 -29 c 0,14,15
 639 -29 639 -29 567.5 17.5 c 128,-1,16
 496 64 496 64 442 158 c 1,0,-1
850 561 m 0,17,18
 850 723 850 723 796 815 c 128,-1,19
 742 907 742 907 647 907 c 0,20,21
 552 907 552 907 497 815 c 128,-1,22
 442 723 442 723 442 561 c 0,23,24
 442 399 442 399 497 307 c 128,-1,25
 552 215 552 215 647 215 c 0,26,27
 742 215 742 215 796 307 c 128,-1,28
 850 399 850 399 850 561 c 0,17,18
EndSplineSet
EndChar
StartChar: Dcroat
Encoding: 272 272 257
Width: 1233
Flags: HW
Fore
432 1227 m 1,0,-1
 432 901 l 1,1,-1
 643 901 l 1,2,-1
 643 664 l 1,3,-1
 432 664 l 1,4,-1
 432 266 l 1,5,-1
 512 266 l 2,6,7
 686 266 686 266 760 375.5 c 128,-1,8
 834 485 834 485 834 748 c 0,9,10
 834 1009 834 1009 760 1118 c 128,-1,11
 686 1227 686 1227 512 1227 c 2,12,-1
 432 1227 l 1,0,-1
137 1493 m 1,13,-1
 453 1493 l 2,14,15
 819 1493 819 1493 980 1318.5 c 128,-1,16
 1141 1144 1141 1144 1141 748 c 0,17,18
 1141 351 1141 351 980 175.5 c 128,-1,19
 819 0 819 0 453 0 c 2,20,-1
 137 0 l 1,21,-1
 137 664 l 1,22,-1
 0 664 l 1,23,-1
 0 901 l 1,24,-1
 137 901 l 1,25,-1
 137 1493 l 1,13,-1
EndSplineSet
EndChar
StartChar: dcroat
Encoding: 273 273 255
Width: 1233
Flags: W
Fore
791 961 m 1,0,-1
 791 1251 l 1,1,-1
 485 1251 l 1,2,-1
 485 1440 l 1,3,-1
 791 1440 l 1,4,-1
 791 1556 l 1,5,-1
 1083 1556 l 1,6,-1
 1083 1440 l 1,7,-1
 1229 1440 l 1,8,-1
 1229 1251 l 1,9,-1
 1083 1251 l 1,10,-1
 1083 0 l 1,11,-1
 791 0 l 1,12,-1
 791 166 l 1,13,14
 744 69 744 69 669.5 20 c 128,-1,15
 595 -29 595 -29 494 -29 c 0,16,17
 302 -29 302 -29 196 125 c 128,-1,18
 90 279 90 279 90 559 c 0,19,20
 90 843 90 843 197.5 995 c 128,-1,21
 305 1147 305 1147 504 1147 c 0,22,23
 594 1147 594 1147 665.5 1100.5 c 128,-1,24
 737 1054 737 1054 791 961 c 1,0,-1
383 557 m 0,25,26
 383 395 383 395 437 303 c 128,-1,27
 491 211 491 211 586 211 c 0,28,29
 681 211 681 211 736 303 c 128,-1,30
 791 395 791 395 791 557 c 0,31,32
 791 719 791 719 736 811 c 128,-1,33
 681 903 681 903 586 903 c 0,34,35
 491 903 491 903 437 811 c 128,-1,36
 383 719 383 719 383 557 c 0,25,26
EndSplineSet
EndChar
StartChar: dotlessi
Encoding: 305 305 214
Width: 1233
Flags: W
Fore
221 1120 m 1,0,-1
 801 1120 l 1,1,-1
 801 225 l 1,2,-1
 1165 225 l 1,3,-1
 1165 0 l 1,4,-1
 143 0 l 1,5,-1
 143 225 l 1,6,-1
 508 225 l 1,7,-1
 508 895 l 1,8,-1
 221 895 l 1,9,-1
 221 1120 l 1,0,-1
EndSplineSet
EndChar
StartChar: Lslash
Encoding: 321 321 225
Width: 1233
Flags: W
Fore
225 0 m 1,0,-1
 225 537 l 1,1,-1
 74 426 l 1,2,-1
 -39 580 l 1,3,-1
 225 768 l 1,4,-1
 225 1493 l 1,5,-1
 520 1493 l 1,6,-1
 520 973 l 1,7,-1
 795 1167 l 1,8,-1
 907 1014 l 1,9,-1
 520 741 l 1,10,-1
 520 260 l 1,11,-1
 1151 260 l 1,12,-1
 1151 0 l 1,13,-1
 225 0 l 1,0,-1
EndSplineSet
EndChar
StartChar: lslash
Encoding: 322 322 226
Width: 1233
Flags: W
Fore
410 467 m 2,0,-1
 410 633 l 1,1,-1
 137 438 l 1,2,-1
 37 600 l 1,3,-1
 410 864 l 1,4,-1
 410 1331 l 1,5,-1
 115 1331 l 1,6,-1
 115 1556 l 1,7,-1
 702 1556 l 1,8,-1
 702 1071 l 1,9,-1
 997 1280 l 1,10,-1
 1100 1120 l 1,11,-1
 702 840 l 1,12,-1
 702 467 l 2,13,14
 702 335 702 335 743.5 280 c 128,-1,15
 785 225 785 225 883 225 c 2,16,-1
 1116 225 l 1,17,-1
 1116 0 l 1,18,-1
 801 0 l 2,19,20
 592 0 592 0 501 108 c 128,-1,21
 410 216 410 216 410 467 c 2,0,-1
EndSplineSet
EndChar
StartChar: OE
Encoding: 338 338 176
Width: 1233
Flags: W
Fore
1217 260 m 1,0,-1
 1217 0 l 1,1,-1
 633 0 l 2,2,3
 309 0 309 0 188.5 155.5 c 128,-1,4
 68 311 68 311 68 745 c 0,5,6
 68 1181 68 1181 189 1337 c 128,-1,7
 310 1493 310 1493 633 1493 c 2,8,-1
 1206 1493 l 1,9,-1
 1206 1233 l 1,10,-1
 874 1233 l 1,11,-1
 874 922 l 1,12,-1
 1176 922 l 1,13,-1
 1176 662 l 1,14,-1
 874 662 l 1,15,-1
 874 260 l 1,16,-1
 1217 260 l 1,0,-1
569 1233 m 2,17,18
 446 1233 446 1233 400 1144 c 128,-1,19
 354 1055 354 1055 354 745 c 0,20,21
 354 434 354 434 399.5 347 c 128,-1,22
 445 260 445 260 569 260 c 2,23,-1
 621 260 l 1,24,-1
 621 1233 l 1,25,-1
 569 1233 l 2,17,18
EndSplineSet
EndChar
StartChar: oe
Encoding: 339 339 177
Width: 1233
Flags: W
Fore
1210 479 m 1,0,-1
 760 479 l 1,1,2
 760 335 760 335 809.5 259.5 c 128,-1,3
 859 184 859 184 954 184 c 0,4,5
 1014 184 1014 184 1074 213.5 c 128,-1,6
 1134 243 1134 243 1194 301 c 1,7,-1
 1194 57 l 1,8,9
 1145 13 1145 13 1083 -8 c 128,-1,10
 1021 -29 1021 -29 936 -29 c 0,11,12
 838 -29 838 -29 767 8 c 128,-1,13
 696 45 696 45 649 119 c 1,14,15
 606 42 606 42 539.5 6.5 c 128,-1,16
 473 -29 473 -29 373 -29 c 0,17,18
 183 -29 183 -29 98.5 109 c 128,-1,19
 14 247 14 247 14 559 c 0,20,21
 14 874 14 874 98.5 1010.5 c 128,-1,22
 183 1147 183 1147 373 1147 c 0,23,24
 472 1147 472 1147 534 1117.5 c 128,-1,25
 596 1088 596 1088 637 1022 c 1,26,27
 665 1082 665 1082 730 1114.5 c 128,-1,28
 795 1147 795 1147 887 1147 c 0,29,30
 1064 1147 1064 1147 1137 1028 c 128,-1,31
 1210 909 1210 909 1210 606 c 2,32,-1
 1210 479 l 1,0,-1
985 690 m 1,33,-1
 985 725 l 2,34,35
 985 841 985 841 959.5 887.5 c 128,-1,36
 934 934 934 934 872 934 c 0,37,38
 810 934 810 934 785 886.5 c 128,-1,39
 760 839 760 839 760 713 c 2,40,-1
 760 690 l 1,41,-1
 985 690 l 1,33,-1
520 559 m 0,42,43
 520 801 520 801 491 867.5 c 128,-1,44
 462 934 462 934 385 934 c 0,45,46
 307 934 307 934 277.5 867.5 c 128,-1,47
 248 801 248 801 248 559 c 0,48,49
 248 317 248 317 277.5 250.5 c 128,-1,50
 307 184 307 184 385 184 c 0,51,52
 462 184 462 184 491 251 c 128,-1,53
 520 318 520 318 520 559 c 0,42,43
EndSplineSet
EndChar
StartChar: florin
Encoding: 402 402 166
Width: 1233
Flags: W
Fore
1153 1505 m 1,0,-1
 1153 1274 l 1,1,2
 1112 1299 1112 1299 1071 1312 c 128,-1,3
 1030 1325 1030 1325 993 1325 c 0,4,5
 899 1325 899 1325 847.5 1265 c 128,-1,6
 796 1205 796 1205 778 1075 c 1,7,-1
 754 885 l 1,8,-1
 1014 885 l 1,9,-1
 1014 666 l 1,10,-1
 725 666 l 1,11,-1
 631 -47 l 1,12,13
 606 -228 606 -228 505 -327 c 128,-1,14
 404 -426 404 -426 244 -426 c 0,15,16
 182 -426 182 -426 124.5 -413.5 c 128,-1,17
 67 -401 67 -401 12 -375 c 1,18,-1
 12 -141 l 1,19,20
 55 -168 55 -168 95 -181.5 c 128,-1,21
 135 -195 135 -195 174 -195 c 0,22,23
 269 -195 269 -195 321.5 -134.5 c 128,-1,24
 374 -74 374 -74 391 55 c 2,25,-1
 471 666 l 1,26,-1
 219 666 l 1,27,-1
 219 885 l 1,28,-1
 500 885 l 1,29,-1
 539 1178 l 2,30,31
 563 1358 563 1358 664.5 1457 c 128,-1,32
 766 1556 766 1556 926 1556 c 0,33,34
 986 1556 986 1556 1042 1543.5 c 128,-1,35
 1098 1531 1098 1531 1153 1505 c 1,0,-1
EndSplineSet
EndChar
StartChar: circumflex
Encoding: 710 710 215
Width: 1233
Flags: W
Fore
496 1638 m 1,0,-1
 737 1638 l 1,1,-1
 993 1262 l 1,2,-1
 815 1262 l 1,3,-1
 616 1487 l 1,4,-1
 418 1262 l 1,5,-1
 240 1262 l 1,6,-1
 496 1638 l 1,0,-1
EndSplineSet
EndChar
StartChar: caron
Encoding: 711 711 224
Width: 1233
Flags: W
Fore
496 1262 m 1,0,-1
 240 1638 l 1,1,-1
 418 1638 l 1,2,-1
 616 1411 l 1,3,-1
 815 1638 l 1,4,-1
 993 1638 l 1,5,-1
 737 1262 l 1,6,-1
 496 1262 l 1,0,-1
EndSplineSet
EndChar
StartChar: breve
Encoding: 728 728 218
Width: 1233
Flags: W
Fore
281 1606 m 1,0,-1
 422 1606 l 1,1,2
 433 1537 433 1537 483 1499.5 c 128,-1,3
 533 1462 533 1462 616 1462 c 0,4,5
 699 1462 699 1462 748.5 1499 c 128,-1,6
 798 1536 798 1536 809 1606 c 1,7,-1
 952 1606 l 1,8,9
 946 1462 946 1462 859.5 1385.5 c 128,-1,10
 773 1309 773 1309 616 1309 c 0,11,12
 460 1309 460 1309 373.5 1385.5 c 128,-1,13
 287 1462 287 1462 281 1606 c 1,0,-1
EndSplineSet
Ligature: 0 0 'liga' space uni0306
EndChar
StartChar: dotaccent
Encoding: 729 729 219
Width: 1233
Flags: W
Fore
479 1585 m 1,0,-1
 754 1585 l 1,1,-1
 754 1339 l 1,2,-1
 479 1339 l 1,3,-1
 479 1585 l 1,0,-1
EndSplineSet
Ligature: 0 0 'liga' space uni0307
EndChar
StartChar: ring
Encoding: 730 730 220
Width: 1233
Flags: W
Fore
332 1534 m 0,0,1
 332 1652 332 1652 415 1735.5 c 128,-1,2
 498 1819 498 1819 616 1819 c 0,3,4
 735 1819 735 1819 818 1735.5 c 128,-1,5
 901 1652 901 1652 901 1534 c 0,6,7
 901 1416 901 1416 818 1332.5 c 128,-1,8
 735 1249 735 1249 616 1249 c 0,9,10
 498 1249 498 1249 415 1332.5 c 128,-1,11
 332 1416 332 1416 332 1534 c 0,0,1
485 1534 m 0,12,13
 485 1479 485 1479 523.5 1441 c 128,-1,14
 562 1403 562 1403 616 1403 c 0,15,16
 671 1403 671 1403 709.5 1441.5 c 128,-1,17
 748 1480 748 1480 748 1534 c 0,18,19
 748 1588 748 1588 709 1626.5 c 128,-1,20
 670 1665 670 1665 616 1665 c 0,21,22
 562 1665 562 1665 523.5 1626.5 c 128,-1,23
 485 1588 485 1588 485 1534 c 0,12,13
EndSplineSet
LCarets: 0 65535 '    ' 1 0 
Ligature: 0 0 'liga' space uni030A
EndChar
StartChar: ogonek
Encoding: 731 731 223
Width: 1233
Flags: W
Fore
557 0 m 1,0,-1
 698 0 l 1,1,2
 645 -71 645 -71 626.5 -106 c 128,-1,3
 608 -141 608 -141 608 -166 c 0,4,5
 608 -205 608 -205 638.5 -229.5 c 128,-1,6
 669 -254 669 -254 719 -254 c 0,7,8
 757 -254 757 -254 795.5 -246.5 c 128,-1,9
 834 -239 834 -239 874 -223 c 1,10,-1
 874 -379 l 1,11,12
 820 -390 820 -390 772.5 -395.5 c 128,-1,13
 725 -401 725 -401 684 -401 c 0,14,15
 570 -401 570 -401 508 -355 c 128,-1,16
 446 -309 446 -309 446 -223 c 0,17,18
 446 -170 446 -170 473.5 -115.5 c 128,-1,19
 501 -61 501 -61 557 0 c 1,0,-1
EndSplineSet
Ligature: 0 0 'liga' space uni0328
EndChar
StartChar: tilde
Encoding: 732 732 216
Width: 1233
Flags: W
Fore
618 1364 m 2,0,-1
 563 1401 l 2,1,2
 560 1403 560 1403 551 1409 c 0,3,4
 508 1438 508 1438 481 1438 c 0,5,6
 445 1438 445 1438 426.5 1407 c 128,-1,7
 408 1376 408 1376 408 1317 c 2,8,-1
 408 1309 l 1,9,-1
 268 1309 l 1,10,11
 268 1445 268 1445 319.5 1519 c 128,-1,12
 371 1593 371 1593 465 1593 c 0,13,14
 501 1593 501 1593 537 1579.5 c 128,-1,15
 573 1566 573 1566 614 1536 c 2,16,-1
 676 1493 l 2,17,18
 697 1478 697 1478 715.5 1470 c 128,-1,19
 734 1462 734 1462 750 1462 c 0,20,21
 786 1462 786 1462 805.5 1493.5 c 128,-1,22
 825 1525 825 1525 825 1583 c 2,23,-1
 825 1591 l 1,24,-1
 965 1591 l 1,25,26
 965 1455 965 1455 913.5 1381 c 128,-1,27
 862 1307 862 1307 768 1307 c 0,28,29
 732 1307 732 1307 699 1319 c 128,-1,30
 666 1331 666 1331 618 1364 c 2,0,-1
EndSplineSet
Ligature: 0 0 'liga' space tildecomb
EndChar
StartChar: hungarumlaut
Encoding: 733 733 222
Width: 1233
Flags: W
Fore
854 1638 m 1,0,-1
 1085 1638 l 1,1,-1
 813 1262 l 1,2,-1
 639 1262 l 1,3,-1
 854 1638 l 1,0,-1
492 1638 m 1,4,-1
 709 1638 l 1,5,-1
 461 1262 l 1,6,-1
 297 1262 l 1,7,-1
 492 1638 l 1,4,-1
EndSplineSet
Ligature: 0 0 'liga' space uni030B
EndChar
StartChar: Omega
Encoding: 937 937 159
Width: 1233
Flags: W
Fore
90 211 m 1,0,-1
 328 211 l 1,1,2
 208 320 208 320 154 455.5 c 128,-1,3
 100 591 100 591 100 782 c 0,4,5
 100 1094 100 1094 239.5 1277 c 128,-1,6
 379 1460 379 1460 614 1460 c 0,7,8
 851 1460 851 1460 992 1277 c 128,-1,9
 1133 1094 1133 1094 1133 782 c 0,10,11
 1133 591 1133 591 1079 455.5 c 128,-1,12
 1025 320 1025 320 905 211 c 1,13,-1
 1143 211 l 1,14,-1
 1143 0 l 1,15,-1
 672 0 l 1,16,-1
 672 268 l 1,17,18
 753 347 753 347 792 464 c 128,-1,19
 831 581 831 581 831 748 c 0,20,21
 831 962 831 962 775 1078 c 128,-1,22
 719 1194 719 1194 616 1194 c 0,23,24
 514 1194 514 1194 457.5 1078 c 128,-1,25
 401 962 401 962 401 748 c 0,26,27
 401 582 401 582 441 463.5 c 128,-1,28
 481 345 481 345 563 268 c 1,29,-1
 563 0 l 1,30,-1
 90 0 l 1,31,-1
 90 211 l 1,0,-1
EndSplineSet
EndChar
StartChar: pi
Encoding: 960 960 155
Width: 1233
Flags: W
Fore
1182 1100 m 1,0,-1
 1182 891 l 1,1,-1
 1020 891 l 1,2,-1
 1020 362 l 2,3,4
 1020 233 1020 233 1044.5 201.5 c 128,-1,5
 1069 170 1069 170 1139 170 c 0,6,7
 1164 170 1164 170 1181 171 c 128,-1,8
 1198 172 1198 172 1214 174 c 1,9,-1
 1214 -14 l 1,10,11
 1170 -27 1170 -27 1120.5 -33 c 128,-1,12
 1071 -39 1071 -39 1016 -39 c 0,13,14
 937 -39 937 -39 880 -22 c 128,-1,15
 823 -5 823 -5 793 27 c 0,16,17
 762 59 762 59 748.5 102 c 128,-1,18
 735 145 735 145 735 233 c 2,19,-1
 735 268 l 1,20,-1
 735 891 l 1,21,-1
 461 891 l 1,22,-1
 461 0 l 1,23,-1
 176 0 l 1,24,-1
 176 891 l 1,25,-1
 14 891 l 1,26,-1
 14 1100 l 1,27,-1
 1182 1100 l 1,0,-1
EndSplineSet
EndChar
StartChar: endash
Encoding: 8211 8211 178
Width: 1233
Flags: W
Fore
0 690 m 1,0,-1
 1233 690 l 1,1,-1
 1233 444 l 1,2,-1
 0 444 l 1,3,-1
 0 690 l 1,0,-1
EndSplineSet
EndChar
StartChar: emdash
Encoding: 8212 8212 179
Width: 1233
Flags: W
Fore
0 690 m 1,0,-1
 1233 690 l 1,1,-1
 1233 444 l 1,2,-1
 0 444 l 1,3,-1
 0 690 l 1,0,-1
EndSplineSet
EndChar
StartChar: quoteleft
Encoding: 8216 8216 182
Width: 1233
Flags: W
Fore
745 903 m 1,0,-1
 432 903 l 1,1,-1
 432 1174 l 1,2,-1
 629 1556 l 1,3,-1
 844 1556 l 1,4,-1
 745 1174 l 1,5,-1
 745 903 l 1,0,-1
EndSplineSet
EndChar
StartChar: quoteright
Encoding: 8217 8217 183
Width: 1233
Flags: W
Fore
530 1556 m 1,0,-1
 844 1556 l 1,1,-1
 844 1286 l 1,2,-1
 647 903 l 1,3,-1
 432 903 l 1,4,-1
 530 1286 l 1,5,-1
 530 1556 l 1,0,-1
EndSplineSet
EndChar
StartChar: quotesinglbase
Encoding: 8218 8218 196
Width: 1233
Flags: W
Fore
461 367 m 1,0,-1
 774 367 l 1,1,-1
 774 96 l 1,2,-1
 578 -287 l 1,3,-1
 362 -287 l 1,4,-1
 461 96 l 1,5,-1
 461 367 l 1,0,-1
EndSplineSet
EndChar
StartChar: quotedblleft
Encoding: 8220 8220 180
Width: 1233
Flags: W
Fore
465 903 m 1,0,-1
 152 903 l 1,1,-1
 152 1174 l 1,2,-1
 348 1556 l 1,3,-1
 563 1556 l 1,4,-1
 465 1174 l 1,5,-1
 465 903 l 1,0,-1
985 903 m 1,6,-1
 672 903 l 1,7,-1
 672 1174 l 1,8,-1
 868 1556 l 1,9,-1
 1081 1556 l 1,10,-1
 985 1174 l 1,11,-1
 985 903 l 1,6,-1
EndSplineSet
EndChar
StartChar: quotedblright
Encoding: 8221 8221 181
Width: 1233
Flags: W
Fore
768 1556 m 1,0,-1
 1081 1556 l 1,1,-1
 1081 1286 l 1,2,-1
 885 903 l 1,3,-1
 670 903 l 1,4,-1
 768 1286 l 1,5,-1
 768 1556 l 1,0,-1
248 1556 m 1,6,-1
 561 1556 l 1,7,-1
 561 1286 l 1,8,-1
 365 903 l 1,9,-1
 150 903 l 1,10,-1
 248 1286 l 1,11,-1
 248 1556 l 1,6,-1
EndSplineSet
EndChar
StartChar: quotedblbase
Encoding: 8222 8222 197
Width: 1233
Flags: W
Fore
768 367 m 1,0,-1
 1081 367 l 1,1,-1
 1081 96 l 1,2,-1
 885 -287 l 1,3,-1
 670 -287 l 1,4,-1
 768 96 l 1,5,-1
 768 367 l 1,0,-1
248 367 m 1,6,-1
 561 367 l 1,7,-1
 561 96 l 1,8,-1
 365 -287 l 1,9,-1
 150 -287 l 1,10,-1
 248 96 l 1,11,-1
 248 367 l 1,6,-1
EndSplineSet
EndChar
StartChar: dagger
Encoding: 8224 8224 130
Width: 1233
Flags: W
Fore
487 1493 m 1,0,-1
 743 1493 l 1,1,-1
 743 1106 l 1,2,-1
 1075 1106 l 1,3,-1
 1075 883 l 1,4,-1
 743 883 l 1,5,-1
 743 -197 l 1,6,-1
 487 -197 l 1,7,-1
 487 883 l 1,8,-1
 156 883 l 1,9,-1
 156 1106 l 1,10,-1
 487 1106 l 1,11,-1
 487 1493 l 1,0,-1
EndSplineSet
EndChar
StartChar: daggerdbl
Encoding: 8225 8225 194
Width: 1233
Flags: W
Fore
487 1493 m 1,0,-1
 743 1493 l 1,1,-1
 743 1106 l 1,2,-1
 1075 1106 l 1,3,-1
 1075 883 l 1,4,-1
 743 883 l 1,5,-1
 743 414 l 1,6,-1
 1075 414 l 1,7,-1
 1075 190 l 1,8,-1
 743 190 l 1,9,-1
 743 -197 l 1,10,-1
 487 -197 l 1,11,-1
 487 190 l 1,12,-1
 156 190 l 1,13,-1
 156 414 l 1,14,-1
 487 414 l 1,15,-1
 487 883 l 1,16,-1
 156 883 l 1,17,-1
 156 1106 l 1,18,-1
 487 1106 l 1,19,-1
 487 1493 l 1,0,-1
EndSplineSet
EndChar
StartChar: bullet
Encoding: 8226 8226 135
Width: 1233
Flags: W
Fore
256 762 m 0,0,1
 256 835 256 835 283.5 900.5 c 128,-1,2
 311 966 311 966 362 1016 c 0,3,4
 416 1067 416 1067 480 1093.5 c 128,-1,5
 544 1120 544 1120 616 1120 c 0,6,7
 689 1120 689 1120 754.5 1093 c 128,-1,8
 820 1066 820 1066 870 1016 c 0,9,10
 923 964 923 964 950 899 c 128,-1,11
 977 834 977 834 977 762 c 0,12,13
 977 689 977 689 949.5 623.5 c 128,-1,14
 922 558 922 558 870 506 c 0,15,16
 819 454 819 454 753 426.5 c 128,-1,17
 687 399 687 399 614 399 c 0,18,19
 542 399 542 399 477 426.5 c 128,-1,20
 412 454 412 454 360 506 c 0,21,22
 310 557 310 557 283 622.5 c 128,-1,23
 256 688 256 688 256 762 c 0,0,1
EndSplineSet
EndChar
StartChar: ellipsis
Encoding: 8230 8230 171
Width: 1233
Flags: W
Fore
881 367 m 1,0,-1
 1176 367 l 1,1,-1
 1176 0 l 1,2,-1
 881 0 l 1,3,-1
 881 367 l 1,0,-1
469 367 m 1,4,-1
 764 367 l 1,5,-1
 764 0 l 1,6,-1
 469 0 l 1,7,-1
 469 367 l 1,4,-1
57 367 m 1,8,-1
 352 367 l 1,9,-1
 352 0 l 1,10,-1
 57 0 l 1,11,-1
 57 367 l 1,8,-1
EndSplineSet
Ligature: 0 0 'liga' period period period
EndChar
StartChar: perthousand
Encoding: 8240 8240 198
Width: 1233
Flags: W
Fore
662 289 m 2,0,1
 662 409 662 409 744.5 492 c 128,-1,2
 827 575 827 575 946 575 c 0,3,4
 1065 575 1065 575 1149 491.5 c 128,-1,5
 1233 408 1233 408 1233 289 c 0,6,7
 1233 169 1233 169 1149 84.5 c 128,-1,8
 1065 0 1065 0 946 0 c 0,9,10
 829 0 829 0 745.5 83 c 128,-1,11
 662 166 662 166 662 285 c 2,12,-1
 662 289 l 2,0,1
946 414 m 0,13,14
 896 414 896 414 859.5 376.5 c 128,-1,15
 823 339 823 339 823 289 c 0,16,17
 823 237 823 237 859 199.5 c 128,-1,18
 895 162 895 162 946 162 c 0,19,20
 997 162 997 162 1034 199.5 c 128,-1,21
 1071 237 1071 237 1071 289 c 0,22,23
 1071 339 1071 339 1034 375.5 c 128,-1,24
 997 412 997 412 946 414 c 0,13,14
0 1145 m 0,25,26
 0 1265 0 1265 83.5 1348.5 c 128,-1,27
 167 1432 167 1432 287 1432 c 0,28,29
 405 1432 405 1432 488 1348 c 128,-1,30
 571 1264 571 1264 571 1145 c 0,31,32
 571 1025 571 1025 488 940.5 c 128,-1,33
 405 856 405 856 287 856 c 0,34,35
 168 856 168 856 84 940 c 128,-1,36
 0 1024 0 1024 0 1145 c 0,25,26
285 1270 m 0,37,38
 233 1270 233 1270 197.5 1234.5 c 128,-1,39
 162 1199 162 1199 162 1147 c 0,40,41
 162 1094 162 1094 198 1056 c 128,-1,42
 234 1018 234 1018 285 1018 c 0,43,44
 336 1018 336 1018 373 1056.5 c 128,-1,45
 410 1095 410 1095 410 1147 c 0,46,47
 410 1196 410 1196 372.5 1233 c 128,-1,48
 335 1270 335 1270 285 1270 c 0,37,38
45 289 m 0,49,50
 45 409 45 409 127.5 492 c 128,-1,51
 210 575 210 575 330 575 c 0,52,53
 449 575 449 575 532.5 491.5 c 128,-1,54
 616 408 616 408 616 289 c 0,55,56
 616 169 616 169 532 84.5 c 128,-1,57
 448 0 448 0 330 0 c 0,58,59
 211 0 211 0 128 84 c 128,-1,60
 45 168 45 168 45 289 c 0,49,50
330 414 m 0,61,62
 279 414 279 414 243 378 c 128,-1,63
 207 342 207 342 207 291 c 0,64,65
 207 238 207 238 243 200 c 128,-1,66
 279 162 279 162 330 162 c 0,67,68
 381 162 381 162 418 200.5 c 128,-1,69
 455 239 455 239 455 291 c 0,70,71
 455 340 455 340 417.5 377 c 128,-1,72
 380 414 380 414 330 414 c 0,61,62
35 664 m 1,73,-1
 1079 1079 l 1,74,-1
 1118 985 l 1,75,-1
 72 565 l 1,76,-1
 35 664 l 1,73,-1
EndSplineSet
EndChar
StartChar: guilsinglleft
Encoding: 8249 8249 190
Width: 1233
Flags: W
Fore
815 1059 m 1,0,-1
 815 821 l 1,1,-1
 539 600 l 1,2,-1
 815 379 l 1,3,-1
 815 141 l 1,4,-1
 346 535 l 1,5,-1
 346 666 l 1,6,-1
 815 1059 l 1,0,-1
EndSplineSet
EndChar
StartChar: guilsinglright
Encoding: 8250 8250 191
Width: 1233
Flags: W
Fore
420 1059 m 1,0,-1
 889 666 l 1,1,-1
 889 535 l 1,2,-1
 420 141 l 1,3,-1
 420 379 l 1,4,-1
 698 600 l 1,5,-1
 420 821 l 1,6,-1
 420 1059 l 1,0,-1
EndSplineSet
EndChar
StartChar: Euro
Encoding: 8364 8364 258
Width: 1233
Flags: W
Fore
209 1010 m 1,0,1
 253 1260 253 1260 399 1390 c 128,-1,2
 545 1520 545 1520 780 1520 c 0,3,4
 863 1520 863 1520 936 1502 c 128,-1,5
 1009 1484 1009 1484 1077 1448 c 1,6,-1
 1077 1120 l 1,7,8
 1003 1198 1003 1198 933 1234 c 128,-1,9
 863 1270 863 1270 786 1270 c 0,10,11
 679 1270 679 1270 609 1204.5 c 128,-1,12
 539 1139 539 1139 508 1010 c 1,13,-1
 950 1010 l 1,14,-1
 866 821 l 1,15,-1
 484 821 l 1,16,17
 482 805 482 805 481.5 787 c 128,-1,18
 481 769 481 769 481 733 c 0,19,20
 481 719 481 719 481.5 703 c 128,-1,21
 482 687 482 687 483 670 c 1,22,-1
 799 670 l 1,23,-1
 715 483 l 1,24,-1
 508 483 l 1,25,26
 532 356 532 356 603.5 288.5 c 128,-1,27
 675 221 675 221 784 221 c 0,28,29
 862 221 862 221 932.5 257 c 128,-1,30
 1003 293 1003 293 1077 371 c 1,31,-1
 1077 43 l 1,32,33
 1011 7 1011 7 937.5 -11 c 128,-1,34
 864 -29 864 -29 780 -29 c 0,35,36
 545 -29 545 -29 399 102 c 128,-1,37
 253 233 253 233 209 483 c 1,38,-1
 6 483 l 1,39,-1
 90 670 l 1,40,-1
 186 670 l 1,41,42
 185 684 185 684 184.5 699.5 c 128,-1,43
 184 715 184 715 184 745 c 0,44,45
 184 774 184 774 184.5 790 c 128,-1,46
 185 806 185 806 186 821 c 1,47,-1
 6 821 l 1,48,-1
 90 1010 l 1,49,-1
 209 1010 l 1,0,1
EndSplineSet
EndChar
StartChar: trademark
Encoding: 8482 8482 140
Width: 1233
Flags: W
Fore
729 1493 m 1,0,-1
 829 1266 l 1,1,-1
 918 1493 l 1,2,-1
 1126 1493 l 1,3,-1
 1126 915 l 1,4,-1
 973 915 l 1,5,-1
 973 1352 l 1,6,-1
 866 1096 l 1,7,-1
 791 1096 l 1,8,-1
 674 1352 l 1,9,-1
 674 915 l 1,10,-1
 522 915 l 1,11,-1
 522 1493 l 1,12,-1
 729 1493 l 1,0,-1
438 1493 m 1,13,-1
 438 1360 l 1,14,-1
 297 1360 l 1,15,-1
 297 915 l 1,16,-1
 141 915 l 1,17,-1
 141 1360 l 1,18,-1
 0 1360 l 1,19,-1
 0 1493 l 1,20,-1
 438 1493 l 1,13,-1
EndSplineSet
Ligature: 0 0 'liga' T M
EndChar
StartChar: partialdiff
Encoding: 8706 8706 152
Width: 1233
Flags: W
Fore
831 662 m 1,0,1
 850 761 850 761 860 850.5 c 128,-1,2
 870 940 870 940 870 1006 c 0,3,4
 870 1106 870 1106 844.5 1163.5 c 128,-1,5
 819 1221 819 1221 774 1221 c 0,6,7
 730 1221 730 1221 628.5 1148 c 128,-1,8
 527 1075 527 1075 469 1075 c 0,9,10
 427 1075 427 1075 398 1105 c 128,-1,11
 369 1135 369 1135 369 1178 c 0,12,13
 369 1242 369 1242 455 1296 c 128,-1,14
 541 1350 541 1350 666 1350 c 0,15,16
 858 1350 858 1350 975 1188.5 c 128,-1,17
 1092 1027 1092 1027 1092 756 c 0,18,19
 1092 417 1092 417 935 196 c 128,-1,20
 778 -25 778 -25 539 -25 c 0,21,22
 367 -25 367 -25 256 89.5 c 128,-1,23
 145 204 145 204 145 381 c 0,24,25
 145 579 145 579 261.5 710.5 c 128,-1,26
 378 842 378 842 549 842 c 0,27,28
 651 842 651 842 718.5 798.5 c 128,-1,29
 786 755 786 755 831 662 c 1,0,1
770 518 m 0,30,31
 770 634 770 634 731.5 696 c 128,-1,32
 693 758 693 758 621 758 c 0,33,34
 520 758 520 758 453.5 624 c 128,-1,35
 387 490 387 490 387 283 c 0,36,37
 387 166 387 166 425 105.5 c 128,-1,38
 463 45 463 45 537 45 c 0,39,40
 637 45 637 45 703.5 178.5 c 128,-1,41
 770 312 770 312 770 518 c 0,30,31
EndSplineSet
EndChar
StartChar: Delta
Encoding: 8710 8710 168
Width: 1233
Flags: W
Fore
891 221 m 1,0,-1
 616 1042 l 1,1,-1
 342 221 l 1,2,-1
 891 221 l 1,0,-1
487 1423 m 1,3,-1
 745 1423 l 1,4,-1
 1241 0 l 1,5,-1
 -6 0 l 1,6,-1
 487 1423 l 1,3,-1
EndSplineSet
EndChar
StartChar: product
Encoding: 8719 8719 154
Width: 1233
Flags: W
Fore
1081 1518 m 1,0,-1
 1081 -436 l 1,1,-1
 825 -436 l 1,2,-1
 825 1311 l 1,3,-1
 408 1311 l 1,4,-1
 408 -436 l 1,5,-1
 152 -436 l 1,6,-1
 152 1518 l 1,7,-1
 1081 1518 l 1,0,-1
EndSplineSet
EndChar
StartChar: summation
Encoding: 8721 8721 153
Width: 1233
Flags: W
Fore
621 569 m 1,0,-1
 127 1378 l 1,1,-1
 127 1518 l 1,2,-1
 1087 1518 l 1,3,-1
 1087 1305 l 1,4,-1
 440 1305 l 1,5,-1
 889 569 l 1,6,-1
 438 -225 l 1,7,-1
 1104 -225 l 1,8,-1
 1104 -436 l 1,9,-1
 127 -436 l 1,10,-1
 127 -301 l 1,11,-1
 621 569 l 1,0,-1
EndSplineSet
EndChar
StartChar: minus
Encoding: 8722 8722 238
Width: 1233
Flags: W
Fore
66 762 m 1,0,-1
 1165 762 l 1,1,-1
 1165 524 l 1,2,-1
 66 524 l 1,3,-1
 66 762 l 1,0,-1
EndSplineSet
EndChar
StartChar: fraction
Encoding: 8725 8725 188
Width: 1233
Flags: W
Fore
899 1493 m 1,0,-1
 1120 1493 l 1,1,-1
 334 -190 l 1,2,-1
 113 -190 l 1,3,-1
 899 1493 l 1,0,-1
EndSplineSet
EndChar
StartChar: periodcentered
Encoding: 8729 8729 257
Width: 1233
Flags: W
Fore
449 895 m 1,0,-1
 782 895 l 1,1,-1
 782 530 l 1,2,-1
 449 530 l 1,3,-1
 449 895 l 1,0,-1
EndSplineSet
EndChar
StartChar: radical
Encoding: 8730 8730 165
Width: 1233
Flags: W
Fore
113 670 m 1,0,-1
 49 868 l 1,1,-1
 401 991 l 1,2,-1
 571 410 l 1,3,-1
 958 1726 l 1,4,-1
 1174 1726 l 1,5,-1
 1174 1518 l 1,6,-1
 1122 1518 l 1,7,-1
 662 -39 l 1,8,-1
 475 -39 l 1,9,-1
 256 721 l 1,10,-1
 113 670 l 1,0,-1
EndSplineSet
EndChar
StartChar: infinity
Encoding: 8734 8734 146
Width: 1233
Flags: W
Fore
725 629 m 1,0,1
 773 513 773 513 813 467.5 c 128,-1,2
 853 422 853 422 903 422 c 0,3,4
 962 422 962 422 999 480.5 c 128,-1,5
 1036 539 1036 539 1036 633 c 0,6,7
 1036 728 1036 728 1002.5 785 c 128,-1,8
 969 842 969 842 913 842 c 0,9,10
 857 842 857 842 808 787 c 128,-1,11
 759 732 759 732 725 629 c 1,0,1
506 635 m 1,12,13
 452 759 452 759 415 800.5 c 128,-1,14
 378 842 378 842 330 842 c 0,15,16
 270 842 270 842 232.5 783.5 c 128,-1,17
 195 725 195 725 195 631 c 0,18,19
 195 536 195 536 228.5 479 c 128,-1,20
 262 422 262 422 317 422 c 0,21,22
 373 422 373 422 419 474 c 128,-1,23
 465 526 465 526 506 635 c 1,12,13
616 831 m 1,24,25
 661 938 661 938 731 989 c 128,-1,26
 801 1040 801 1040 901 1040 c 0,27,28
 1047 1040 1047 1040 1134 928 c 128,-1,29
 1221 816 1221 816 1221 631 c 0,30,31
 1221 453 1221 453 1131 338 c 128,-1,32
 1041 223 1041 223 903 223 c 0,33,34
 816 223 816 223 748 272 c 128,-1,35
 680 321 680 321 616 428 c 1,36,37
 561 325 561 325 490 274 c 128,-1,38
 419 223 419 223 332 223 c 0,39,40
 194 223 194 223 103 338.5 c 128,-1,41
 12 454 12 454 12 631 c 0,42,43
 12 818 12 818 98.5 929 c 128,-1,44
 185 1040 185 1040 330 1040 c 0,45,46
 422 1040 422 1040 494 988 c 128,-1,47
 566 936 566 936 616 831 c 1,24,25
EndSplineSet
EndChar
StartChar: integral
Encoding: 8747 8747 156
Width: 1233
Flags: W
Fore
365 -252 m 0,0,1
 467 -252 467 -252 485 387 c 0,2,3
 489 524 489 524 492 599 c 0,4,5
 508 1106 508 1106 615 1330 c 128,-1,6
 722 1554 722 1554 942 1554 c 0,7,8
 1040 1554 1040 1554 1099.5 1505 c 128,-1,9
 1159 1456 1159 1456 1159 1376 c 0,10,11
 1159 1316 1159 1316 1121 1279.5 c 128,-1,12
 1083 1243 1083 1243 1022 1243 c 0,13,14
 976 1243 976 1243 945 1267 c 128,-1,15
 914 1291 914 1291 903 1336 c 0,16,17
 898 1356 898 1356 896 1390 c 0,18,19
 893 1436 893 1436 866 1436 c 0,20,21
 768 1436 768 1436 747 802 c 0,22,23
 744 688 744 688 741 624 c 0,24,25
 731 329 731 329 710.5 180.5 c 128,-1,26
 690 32 690 32 651 -70 c 0,27,28
 595 -218 595 -218 502.5 -295.5 c 128,-1,29
 410 -373 410 -373 289 -373 c 0,30,31
 192 -373 192 -373 132 -324 c 128,-1,32
 72 -275 72 -275 72 -197 c 0,33,34
 72 -135 72 -135 110.5 -98 c 128,-1,35
 149 -61 149 -61 215 -61 c 0,36,37
 266 -61 266 -61 301 -92.5 c 128,-1,38
 336 -124 336 -124 336 -164 c 0,39,40
 336 -222 336 -222 342 -237 c 128,-1,41
 348 -252 348 -252 365 -252 c 0,0,1
EndSplineSet
EndChar
StartChar: approxequal
Encoding: 8776 8776 167
Width: 1233
Flags: W
Fore
1145 602 m 1,0,-1
 1145 369 l 1,1,2
 1070 309 1070 309 998.5 281.5 c 128,-1,3
 927 254 927 254 848 254 c 0,4,5
 758 254 758 254 645 305 c 0,6,7
 623 315 623 315 612 319 c 0,8,9
 535 353 535 353 483.5 365 c 128,-1,10
 432 377 432 377 381 377 c 0,11,12
 303 377 303 377 232.5 348 c 128,-1,13
 162 319 162 319 88 256 c 1,14,-1
 88 485 l 1,15,16
 166 546 166 546 239 573 c 128,-1,17
 312 600 312 600 395 600 c 0,18,19
 491 600 491 600 621 545 c 2,20,-1
 622 545 l 2,21,22
 633 540 633 540 653 531 c 0,23,24
 769 477 769 477 864 477 c 0,25,26
 934 477 934 477 1003 507.5 c 128,-1,27
 1072 538 1072 538 1145 602 c 1,0,-1
1145 1020 m 1,28,-1
 1145 786 l 1,29,30
 1070 727 1070 727 998.5 699.5 c 128,-1,31
 927 672 927 672 848 672 c 0,32,33
 758 672 758 672 645 723 c 0,34,35
 623 733 623 733 612 737 c 0,36,37
 535 771 535 771 483.5 783 c 128,-1,38
 432 795 432 795 381 795 c 0,39,40
 303 795 303 795 232.5 766 c 128,-1,41
 162 737 162 737 88 674 c 1,42,-1
 88 903 l 1,43,44
 166 963 166 963 239 990.5 c 128,-1,45
 312 1018 312 1018 395 1018 c 0,46,47
 491 1018 491 1018 621 963 c 2,48,-1
 622 963 l 2,49,50
 633 958 633 958 652 949 c 0,51,52
 769 895 769 895 864 895 c 0,53,54
 935 895 935 895 1003 925 c 128,-1,55
 1071 955 1071 955 1145 1020 c 1,28,-1
EndSplineSet
EndChar
StartChar: notequal
Encoding: 8800 8800 143
Width: 1233
Flags: W
Fore
78 987 m 1,0,-1
 737 987 l 1,1,-1
 989 1292 l 1,2,-1
 1139 1167 l 1,3,-1
 993 987 l 1,4,-1
 1155 987 l 1,5,-1
 1155 752 l 1,6,-1
 840 752 l 1,7,-1
 666 532 l 1,8,-1
 1155 532 l 1,9,-1
 1155 295 l 1,10,-1
 496 295 l 1,11,-1
 244 -10 l 1,12,-1
 94 117 l 1,13,-1
 240 295 l 1,14,-1
 78 295 l 1,15,-1
 78 532 l 1,16,-1
 399 532 l 1,17,-1
 575 752 l 1,18,-1
 78 752 l 1,19,-1
 78 987 l 1,0,-1
EndSplineSet
Ligature: 0 0 'liga' equal uni0338
EndChar
StartChar: lessequal
Encoding: 8804 8804 148
Width: 1233
Flags: W
Fore
1145 948 m 1,0,-1
 406 739 l 1,1,-1
 1145 530 l 1,2,-1
 1145 287 l 1,3,-1
 88 623 l 1,4,-1
 88 858 l 1,5,-1
 1145 1192 l 1,6,-1
 1145 948 l 1,0,-1
1145 238 m 1,7,-1
 1145 0 l 1,8,-1
 88 0 l 1,9,-1
 88 238 l 1,10,-1
 1145 238 l 1,7,-1
EndSplineSet
EndChar
StartChar: greaterequal
Encoding: 8805 8805 149
Width: 1233
Flags: W
Fore
88 948 m 1,0,-1
 88 1192 l 1,1,-1
 1145 858 l 1,2,-1
 1145 623 l 1,3,-1
 88 287 l 1,4,-1
 88 530 l 1,5,-1
 827 739 l 1,6,-1
 88 948 l 1,0,-1
88 238 m 1,7,-1
 1145 238 l 1,8,-1
 1145 0 l 1,9,-1
 88 0 l 1,10,-1
 88 238 l 1,7,-1
EndSplineSet
EndChar
StartChar: lozenge
Encoding: 9674 9674 185
Width: 1233
Flags: W
Fore
616 1409 m 1,0,-1
 231 592 l 1,1,-1
 616 -233 l 1,2,-1
 1001 592 l 1,3,-1
 616 1409 l 1,0,-1
616 1653 m 1,4,-1
 1116 592 l 1,5,-1
 616 -477 l 1,6,-1
 117 592 l 1,7,-1
 616 1653 l 1,4,-1
EndSplineSet
EndChar
StartChar: fi
Encoding: 64257 64257 192
Width: 1233
Flags: W
Fore
805 1556 m 1,0,-1
 1098 1556 l 1,1,-1
 1098 1264 l 1,2,-1
 805 1264 l 1,3,-1
 805 1556 l 1,0,-1
494 1219 m 1,4,-1
 494 1120 l 1,5,-1
 1098 1120 l 1,6,-1
 1098 0 l 1,7,-1
 805 0 l 1,8,-1
 805 895 l 1,9,-1
 494 895 l 1,10,-1
 494 0 l 1,11,-1
 201 0 l 1,12,-1
 201 895 l 1,13,-1
 12 895 l 1,14,-1
 12 1120 l 1,15,-1
 201 1120 l 1,16,-1
 201 1198 l 2,17,18
 201 1400 201 1400 284.5 1478 c 128,-1,19
 368 1556 368 1556 596 1556 c 2,20,-1
 676 1556 l 1,21,-1
 676 1331 l 1,22,-1
 608 1331 l 2,23,24
 542 1331 542 1331 518.5 1307 c 128,-1,25
 495 1283 495 1283 494 1219 c 1,4,-1
EndSplineSet
Ligature: 0 1 'liga' f i
EndChar
StartChar: fl
Encoding: 64258 64258 193
Width: 1233
Flags: W
Fore
494 1219 m 1,0,-1
 494 1120 l 1,1,-1
 682 1120 l 1,2,-1
 682 895 l 1,3,-1
 494 895 l 1,4,-1
 494 0 l 1,5,-1
 201 0 l 1,6,-1
 201 895 l 1,7,-1
 12 895 l 1,8,-1
 12 1120 l 1,9,-1
 201 1120 l 1,10,-1
 201 1198 l 2,11,12
 201 1400 201 1400 284.5 1478 c 128,-1,13
 368 1556 368 1556 596 1556 c 2,14,-1
 1098 1556 l 1,15,-1
 1098 0 l 1,16,-1
 805 0 l 1,17,-1
 805 1331 l 1,18,-1
 608 1331 l 2,19,20
 542 1331 542 1331 518.5 1307 c 128,-1,21
 495 1283 495 1283 494 1219 c 1,0,-1
EndSplineSet
Ligature: 0 1 'liga' f l
EndChar
StartChar: dlLtcaron
Encoding: 65537 -1 194
Width: 1233
Flags: HW
Fore
545 1638 m 1,0,-1
 827 1638 l 1,1,-1
 666 1262 l 1,2,-1
 469 1262 l 1,3,-1
 545 1638 l 1,0,-1
EndSplineSet
EndChar
StartChar: c6459
Encoding: 65538 -1 259
Width: 1233
Flags: W
Fore
696 1526 m 1,0,-1
 932 1526 l 1,1,-1
 932 1280 l 1,2,-1
 696 1280 l 1,3,-1
 696 1526 l 1,0,-1
301 1526 m 1,4,-1
 537 1526 l 1,5,-1
 537 1280 l 1,6,-1
 301 1280 l 1,7,-1
 301 1526 l 1,4,-1
EndSplineSet
EndChar
StartChar: c6460
Encoding: 65539 -1 260
Width: 1233
Flags: W
Fore
668 1526 m 1,0,-1
 952 1526 l 1,1,-1
 666 1262 l 1,2,-1
 469 1262 l 1,3,-1
 668 1526 l 1,0,-1
EndSplineSet
EndChar
StartChar: c6461
Encoding: 65540 -1 261
Width: 1233
Flags: W
Fore
618 1311 m 2,0,-1
 564 1345 l 2,1,2
 559 1348 559 1348 552 1352 c 0,3,4
 507 1378 507 1378 479 1378 c 0,5,6
 448 1378 448 1378 428 1348 c 128,-1,7
 408 1318 408 1318 408 1268 c 2,8,-1
 408 1262 l 1,9,-1
 268 1262 l 1,10,-1
 268 1292 l 2,11,12
 268 1398 268 1398 322.5 1463 c 128,-1,13
 377 1528 377 1528 465 1528 c 0,14,15
 501 1528 501 1528 538.5 1515.5 c 128,-1,16
 576 1503 576 1503 614 1479 c 2,17,-1
 674 1440 l 2,18,19
 695 1426 695 1426 714.5 1418.5 c 128,-1,20
 734 1411 734 1411 750 1411 c 0,21,22
 786 1411 786 1411 805.5 1441 c 128,-1,23
 825 1471 825 1471 825 1528 c 1,24,-1
 965 1528 l 1,25,26
 965 1523 965 1523 964 1513 c 128,-1,27
 963 1503 963 1503 963 1497 c 0,28,29
 963 1391 963 1391 909.5 1326.5 c 128,-1,30
 856 1262 856 1262 768 1262 c 0,31,32
 731 1262 731 1262 695.5 1273 c 128,-1,33
 660 1284 660 1284 618 1311 c 2,0,-1
EndSplineSet
EndChar
StartChar: c6468
Encoding: 65541 -1 262
Width: 1233
Flags: W
Fore
567 1526 m 1,0,-1
 766 1262 l 1,1,-1
 569 1262 l 1,2,-1
 283 1526 l 1,3,-1
 567 1526 l 1,0,-1
EndSplineSet
EndChar
StartChar: c6470
Encoding: 65542 -1 263
Width: 1233
Flags: W
Fore
461 1526 m 1,0,-1
 770 1526 l 1,1,-1
 993 1262 l 1,2,-1
 815 1262 l 1,3,-1
 616 1423 l 1,4,-1
 418 1262 l 1,5,-1
 240 1262 l 1,6,-1
 461 1526 l 1,0,-1
EndSplineSet
EndChar
StartChar: c6472
Encoding: 65543 -1 264
Width: 1233
Flags: W
Fore
461 1262 m 1,0,-1
 240 1526 l 1,1,-1
 418 1526 l 1,2,-1
 616 1364 l 1,3,-1
 815 1526 l 1,4,-1
 993 1526 l 1,5,-1
 770 1262 l 1,6,-1
 461 1262 l 1,0,-1
EndSplineSet
EndChar
StartChar: c6477
Encoding: 65544 -1 265
Width: 1233
Flags: W
Fore
84 500 m 1,0,-1
 47 618 l 1,1,-1
 1106 881 l 1,2,-1
 1143 762 l 1,3,-1
 84 500 l 1,0,-1
EndSplineSet
EndChar
StartChar: c6478
Encoding: 65545 -1 266
Width: 1233
Flags: W
Fore
639 1321 m 1,0,-1
 389 991 l 1,1,-1
 639 991 l 1,2,-1
 639 1321 l 1,0,-1
621 1503 m 1,3,-1
 825 1503 l 1,4,-1
 825 991 l 1,5,-1
 934 991 l 1,6,-1
 934 848 l 1,7,-1
 825 848 l 1,8,-1
 825 668 l 1,9,-1
 639 668 l 1,10,-1
 639 848 l 1,11,-1
 246 848 l 1,12,-1
 246 1010 l 1,13,-1
 621 1503 l 1,3,-1
EndSplineSet
EndChar
StartChar: c6475
Encoding: 65546 -1 267
Width: 1233
Flags: W
Fore
281 1526 m 1,0,-1
 422 1526 l 1,1,2
 442 1466 442 1466 491 1435.5 c 128,-1,3
 540 1405 540 1405 616 1405 c 0,4,5
 693 1405 693 1405 741 1435 c 128,-1,6
 789 1465 789 1465 809 1526 c 1,7,-1
 952 1526 l 1,8,9
 937 1397 937 1397 850.5 1329.5 c 128,-1,10
 764 1262 764 1262 616 1262 c 0,11,12
 469 1262 469 1262 382.5 1329.5 c 128,-1,13
 296 1397 296 1397 281 1526 c 1,0,-1
EndSplineSet
EndChar
StartChar: c6476
Encoding: 65547 -1 268
Width: 1233
Flags: W
Fore
479 1526 m 1,0,-1
 754 1526 l 1,1,-1
 754 1280 l 1,2,-1
 479 1280 l 1,3,-1
 479 1526 l 1,0,-1
EndSplineSet
EndChar
